<?xml version="1.0" encoding="UTF-8"?>
<svg xmlns="http://www.w3.org/2000/svg" width="1920" height="1080" viewBox="0 0 1920 1080" fill="none">
  <rect width="1920" height="1080" fill="#F5F5F4"></rect>
  <g clip-path="url(#clip0_2528_8509)">
    <rect width="374" height="306" transform="translate(96 96)" fill="#191919"></rect>
    <path d="M137.296 133.257C135.968 133.257 135.232 133.801 135.232 134.617C135.232 135.497 135.968 135.849 137.04 135.993L138.352 136.185C140.592 136.489 142.336 137.273 142.336 139.641C142.336 141.689 140.736 143.209 137.904 143.209C134.496 143.209 133.072 141.305 132.688 139.769H134.976C135.232 140.409 136.048 141.369 137.904 141.369C139.312 141.369 140.144 140.761 140.144 139.801C140.144 138.761 139.328 138.425 138.208 138.249L136.896 138.057C134.608 137.753 133.056 136.841 133.056 134.681C133.056 132.649 134.816 131.433 137.296 131.433C140.496 131.433 141.728 133.129 142.064 134.489H139.856C139.552 133.961 138.848 133.257 137.296 133.257Z" fill="white"></path>
    <path d="M144.561 143.001V131.225H146.609V143.001H144.561Z" fill="white"></path>
    <path d="M156.576 143.049H155.936C154.976 143.049 154.368 142.649 154.16 141.961C153.824 142.473 153.104 143.177 151.744 143.177C149.904 143.177 148.608 142.105 148.608 140.441C148.608 138.841 149.728 137.961 151.648 137.961H154.048V137.929C154.048 136.969 153.408 136.329 152.368 136.329C151.296 136.329 150.96 136.953 150.864 137.145H148.832C148.912 136.489 149.712 134.697 152.336 134.697C154.768 134.697 156.016 136.025 156.016 137.977V140.665C156.016 141.113 156.208 141.353 156.576 141.401V143.049ZM152.224 141.657C153.2 141.657 154.048 141.065 154.048 140.217V139.369H151.968C151.184 139.369 150.64 139.721 150.64 140.409C150.64 141.161 151.216 141.657 152.224 141.657Z" fill="white"></path>
    <path d="M164.148 141.177V143.001H162.132C160.276 143.001 159.412 142.121 159.412 140.409V136.649H157.412V134.905H159.412V131.641H161.46V134.905H164.148V136.649H161.46V139.801C161.46 140.745 161.764 141.177 162.836 141.177H164.148Z" fill="white"></path>
    <path d="M169.493 134.697C171.813 134.697 173.317 136.377 173.317 138.937V139.273H167.669C167.733 140.553 168.437 141.497 169.653 141.497C170.757 141.497 171.157 140.889 171.285 140.713H173.269C173.141 141.545 172.261 143.209 169.653 143.209C167.173 143.209 165.637 141.401 165.637 138.953C165.637 136.441 167.141 134.697 169.493 134.697ZM169.493 136.265C168.469 136.265 167.877 136.905 167.701 137.929H171.253C171.061 136.857 170.453 136.265 169.493 136.265Z" fill="white"></path>
    <path d="M179.62 143.001V131.641H183.588C187.172 131.641 189.476 133.689 189.476 137.321C189.476 140.873 187.172 143.001 183.588 143.001H179.62ZM183.572 133.529H181.764V141.113H183.572C185.876 141.113 187.284 139.673 187.284 137.321C187.284 134.889 185.892 133.529 183.572 133.529Z" fill="white"></path>
    <path d="M199.114 143.049H198.474C197.514 143.049 196.906 142.649 196.698 141.961C196.362 142.473 195.642 143.177 194.282 143.177C192.442 143.177 191.146 142.105 191.146 140.441C191.146 138.841 192.266 137.961 194.186 137.961H196.586V137.929C196.586 136.969 195.946 136.329 194.906 136.329C193.834 136.329 193.498 136.953 193.402 137.145H191.37C191.45 136.489 192.25 134.697 194.874 134.697C197.306 134.697 198.554 136.025 198.554 137.977V140.665C198.554 141.113 198.746 141.353 199.114 141.401V143.049ZM194.762 141.657C195.738 141.657 196.586 141.065 196.586 140.217V139.369H194.506C193.722 139.369 193.178 139.721 193.178 140.409C193.178 141.161 193.754 141.657 194.762 141.657Z" fill="white"></path>
    <path d="M202.985 138.729V143.001H200.953V134.905H202.985V136.217C203.193 135.705 203.849 134.857 205.513 134.857H206.985V136.889H205.209C203.609 136.889 202.985 137.465 202.985 138.729Z" fill="white"></path>
    <path d="M214.157 143.001L210.733 139.305V143.001H208.717V131.225H210.733V138.249L213.949 134.905H216.509L212.829 138.681L216.797 143.001H214.157Z" fill="white"></path>
    <path d="M136.844 165.001L137.628 162.327H135.346L134.548 165.001H133.442L134.226 162.327H132.42V161.333H134.52L135.332 158.589H133.512V157.595H135.626L136.382 155.061H137.502L136.746 157.595H139.028L139.784 155.061H140.904L140.148 157.595H141.954V158.589H139.854L139.042 161.333H140.862V162.327H138.748L137.95 165.001H136.844ZM135.64 161.333H137.922L138.734 158.589H136.452L135.64 161.333Z" fill="white"></path>
    <path d="M146.897 155.019V165.001H145.539V156.601L143.075 158.029V156.741L145.889 155.019H146.897Z" fill="white"></path>
    <path d="M155.078 161.963L152.754 165.001H151.144L154.042 161.319C153.706 161.501 153.272 161.613 152.726 161.613C150.878 161.613 149.548 160.339 149.548 158.281C149.548 156.377 150.892 154.893 153.132 154.893C155.4 154.893 156.688 156.321 156.688 158.281C156.688 159.793 155.96 160.815 155.078 161.963ZM150.906 158.281C150.906 159.513 151.676 160.465 153.132 160.465C154.476 160.465 155.33 159.513 155.33 158.281C155.33 157.119 154.532 156.125 153.132 156.125C151.676 156.125 150.906 157.119 150.906 158.281Z" fill="white"></path>
    <path d="M162.152 155.019V165.001H160.794V156.601L158.33 158.029V156.741L161.144 155.019H162.152Z" fill="white"></path>
    <path d="M170.332 161.963L168.008 165.001H166.398L169.296 161.319C168.96 161.501 168.526 161.613 167.98 161.613C166.132 161.613 164.802 160.339 164.802 158.281C164.802 156.377 166.146 154.893 168.386 154.893C170.654 154.893 171.942 156.321 171.942 158.281C171.942 159.793 171.214 160.815 170.332 161.963ZM166.16 158.281C166.16 159.513 166.93 160.465 168.386 160.465C169.73 160.465 170.584 159.513 170.584 158.281C170.584 157.119 169.786 156.125 168.386 156.125C166.93 156.125 166.16 157.119 166.16 158.281Z" fill="white"></path>
    <path d="M177.406 155.019V165.001H176.048V156.601L173.584 158.029V156.741L176.398 155.019H177.406Z" fill="white"></path>
    <path d="M185.587 161.963L183.263 165.001H181.653L184.551 161.319C184.215 161.501 183.781 161.613 183.235 161.613C181.387 161.613 180.057 160.339 180.057 158.281C180.057 156.377 181.401 154.893 183.641 154.893C185.909 154.893 187.197 156.321 187.197 158.281C187.197 159.793 186.469 160.815 185.587 161.963ZM181.415 158.281C181.415 159.513 182.185 160.465 183.641 160.465C184.985 160.465 185.839 159.513 185.839 158.281C185.839 157.119 185.041 156.125 183.641 156.125C182.185 156.125 181.415 157.119 181.415 158.281Z" fill="white"></path>
    <rect width="374" height="306" transform="translate(96 392)" fill="#262625"></rect>
    <path d="M137.296 429.256C135.968 429.256 135.232 429.8 135.232 430.616C135.232 431.496 135.968 431.848 137.04 431.992L138.352 432.184C140.592 432.488 142.336 433.272 142.336 435.64C142.336 437.688 140.736 439.208 137.904 439.208C134.496 439.208 133.072 437.304 132.688 435.768H134.976C135.232 436.408 136.048 437.368 137.904 437.368C139.312 437.368 140.144 436.76 140.144 435.8C140.144 434.76 139.328 434.424 138.208 434.248L136.896 434.056C134.608 433.752 133.056 432.84 133.056 430.68C133.056 428.648 134.816 427.432 137.296 427.432C140.496 427.432 141.728 429.128 142.064 430.488H139.856C139.552 429.96 138.848 429.256 137.296 429.256Z" fill="white"></path>
    <path d="M144.561 439V427.224H146.609V439H144.561Z" fill="white"></path>
    <path d="M156.576 439.048H155.936C154.976 439.048 154.368 438.648 154.16 437.96C153.824 438.472 153.104 439.176 151.744 439.176C149.904 439.176 148.608 438.104 148.608 436.44C148.608 434.84 149.728 433.96 151.648 433.96H154.048V433.928C154.048 432.968 153.408 432.328 152.368 432.328C151.296 432.328 150.96 432.952 150.864 433.144H148.832C148.912 432.488 149.712 430.696 152.336 430.696C154.768 430.696 156.016 432.024 156.016 433.976V436.664C156.016 437.112 156.208 437.352 156.576 437.4V439.048ZM152.224 437.656C153.2 437.656 154.048 437.064 154.048 436.216V435.368H151.968C151.184 435.368 150.64 435.72 150.64 436.408C150.64 437.16 151.216 437.656 152.224 437.656Z" fill="white"></path>
    <path d="M164.148 437.176V439H162.132C160.276 439 159.412 438.12 159.412 436.408V432.648H157.412V430.904H159.412V427.64H161.46V430.904H164.148V432.648H161.46V435.8C161.46 436.744 161.764 437.176 162.836 437.176H164.148Z" fill="white"></path>
    <path d="M169.493 430.696C171.813 430.696 173.317 432.376 173.317 434.936V435.272H167.669C167.733 436.552 168.437 437.496 169.653 437.496C170.757 437.496 171.157 436.888 171.285 436.712H173.269C173.141 437.544 172.261 439.208 169.653 439.208C167.173 439.208 165.637 437.4 165.637 434.952C165.637 432.44 167.141 430.696 169.493 430.696ZM169.493 432.264C168.469 432.264 167.877 432.904 167.701 433.928H171.253C171.061 432.856 170.453 432.264 169.493 432.264Z" fill="white"></path>
    <path d="M182.868 427.64L185.764 435.656L188.676 427.64H191.812V439H189.732V429.8L186.388 439.048H184.932L181.604 429.88V439H179.62V427.64H182.868Z" fill="white"></path>
    <path d="M197.972 430.696C200.292 430.696 201.796 432.376 201.796 434.936V435.272H196.148C196.212 436.552 196.916 437.496 198.132 437.496C199.236 437.496 199.636 436.888 199.764 436.712H201.748C201.62 437.544 200.74 439.208 198.132 439.208C195.652 439.208 194.116 437.4 194.116 434.952C194.116 432.44 195.62 430.696 197.972 430.696ZM197.972 432.264C196.948 432.264 196.356 432.904 196.18 433.928H199.732C199.54 432.856 198.932 432.264 197.972 432.264Z" fill="white"></path>
    <path d="M209.205 439V437.784C209.045 438.152 208.341 439.176 206.805 439.176C204.869 439.176 203.333 437.592 203.333 434.952C203.333 432.28 204.869 430.712 206.805 430.712C208.357 430.712 209.013 431.736 209.189 432.056V427.224H211.221V439H209.205ZM209.221 434.952C209.221 433.544 208.485 432.504 207.301 432.504C206.101 432.504 205.413 433.544 205.413 434.952C205.413 436.36 206.101 437.4 207.301 437.4C208.485 437.4 209.221 436.36 209.221 434.952Z" fill="white"></path>
    <path d="M213.685 429.608V427.176H215.813V429.608H213.685ZM213.717 439V430.904H215.765V439H213.717Z" fill="white"></path>
    <path d="M221.91 439.176C219.446 439.176 218.214 437.752 218.214 435.656V430.904H220.262V435.544C220.262 436.568 220.806 437.272 221.894 437.272C222.966 437.272 223.542 436.568 223.542 435.544V430.904H225.558V435.656C225.558 437.64 224.31 439.176 221.91 439.176Z" fill="white"></path>
    <path d="M230.042 434.392V439H228.01V430.904H230.042V432.008C230.298 431.496 231.066 430.728 232.33 430.728C233.594 430.728 234.49 431.336 234.986 432.296C235.274 431.672 236.074 430.728 237.61 430.728C239.53 430.728 240.714 432.104 240.714 434.024V439H238.666V434.392C238.666 433.288 238.122 432.552 237.034 432.552C235.946 432.552 235.37 433.304 235.37 434.392V439H233.322V434.392C233.322 433.288 232.762 432.552 231.69 432.552C230.602 432.552 230.042 433.304 230.042 434.392Z" fill="white"></path>
    <path d="M136.844 461.001L137.628 458.327H135.346L134.548 461.001H133.442L134.226 458.327H132.42V457.333H134.52L135.332 454.589H133.512V453.595H135.626L136.382 451.061H137.502L136.746 453.595H139.028L139.784 451.061H140.904L140.148 453.595H141.954V454.589H139.854L139.042 457.333H140.862V458.327H138.748L137.95 461.001H136.844ZM135.64 457.333H137.922L138.734 454.589H136.452L135.64 457.333Z" fill="white"></path>
    <path d="M150.343 459.769V461.001H143.357V460.161L146.717 456.843C147.795 455.765 148.411 455.037 148.411 453.959C148.411 452.853 147.725 452.125 146.563 452.125C145.401 452.125 144.715 452.937 144.715 454.071V454.715H143.385V454.057C143.385 452.223 144.589 450.893 146.563 450.893C148.537 450.893 149.769 452.209 149.769 453.959C149.769 455.527 148.817 456.521 147.599 457.711L145.499 459.769H150.343Z" fill="white"></path>
    <path d="M159.039 457.781C159.039 459.685 157.695 461.169 155.455 461.169C153.187 461.169 151.899 459.741 151.899 457.781C151.899 456.269 152.627 455.233 153.509 454.099L155.833 451.061H157.443L154.545 454.743C154.881 454.561 155.315 454.449 155.861 454.449C157.709 454.449 159.039 455.723 159.039 457.781ZM157.681 457.781C157.681 456.549 156.911 455.597 155.455 455.597C154.111 455.597 153.257 456.549 153.257 457.781C153.257 458.971 154.055 459.937 155.455 459.937C156.911 459.937 157.681 458.971 157.681 457.781Z" fill="white"></path>
    <path d="M168.017 459.769V461.001H161.031V460.161L164.391 456.843C165.469 455.765 166.085 455.037 166.085 453.959C166.085 452.853 165.399 452.125 164.237 452.125C163.075 452.125 162.389 452.937 162.389 454.071V454.715H161.059V454.057C161.059 452.223 162.263 450.893 164.237 450.893C166.211 450.893 167.443 452.209 167.443 453.959C167.443 455.527 166.491 456.521 165.273 457.711L163.173 459.769H168.017Z" fill="white"></path>
    <path d="M176.714 457.781C176.714 459.685 175.37 461.169 173.13 461.169C170.862 461.169 169.574 459.741 169.574 457.781C169.574 456.269 170.302 455.233 171.184 454.099L173.508 451.061H175.118L172.22 454.743C172.556 454.561 172.99 454.449 173.536 454.449C175.384 454.449 176.714 455.723 176.714 457.781ZM175.356 457.781C175.356 456.549 174.586 455.597 173.13 455.597C171.786 455.597 170.932 456.549 170.932 457.781C170.932 458.971 171.73 459.937 173.13 459.937C174.586 459.937 175.356 458.971 175.356 457.781Z" fill="white"></path>
    <path d="M185.692 459.769V461.001H178.706V460.161L182.066 456.843C183.144 455.765 183.76 455.037 183.76 453.959C183.76 452.853 183.074 452.125 181.912 452.125C180.75 452.125 180.064 452.937 180.064 454.071V454.715H178.734V454.057C178.734 452.223 179.938 450.893 181.912 450.893C183.886 450.893 185.118 452.209 185.118 453.959C185.118 455.527 184.166 456.521 182.948 457.711L180.848 459.769H185.692Z" fill="white"></path>
    <path d="M187.836 456.605V451.061H193.94V452.293H189.124V455.177C189.516 454.785 190.174 454.449 191.14 454.449C192.848 454.449 194.318 455.639 194.318 457.725V457.879C194.318 459.811 192.918 461.169 190.832 461.169C188.55 461.169 187.458 459.769 187.346 458.257H188.676C188.788 458.929 189.278 459.937 190.832 459.937C192.106 459.937 192.974 459.069 192.974 457.879V457.739C192.974 456.465 192.12 455.681 190.832 455.681C189.586 455.681 189.11 456.381 188.956 456.605H187.836Z" fill="white"></path>
    <rect width="374" height="296" transform="translate(96 688)" fill="#40403E"></rect>
    <path d="M137.296 725.256C135.968 725.256 135.232 725.8 135.232 726.616C135.232 727.496 135.968 727.848 137.04 727.992L138.352 728.184C140.592 728.488 142.336 729.272 142.336 731.64C142.336 733.688 140.736 735.208 137.904 735.208C134.496 735.208 133.072 733.304 132.688 731.768H134.976C135.232 732.408 136.048 733.368 137.904 733.368C139.312 733.368 140.144 732.76 140.144 731.8C140.144 730.76 139.328 730.424 138.208 730.248L136.896 730.056C134.608 729.752 133.056 728.84 133.056 726.68C133.056 724.648 134.816 723.432 137.296 723.432C140.496 723.432 141.728 725.128 142.064 726.488H139.856C139.552 725.96 138.848 725.256 137.296 725.256Z" fill="white"></path>
    <path d="M144.561 735V723.224H146.609V735H144.561Z" fill="white"></path>
    <path d="M156.576 735.048H155.936C154.976 735.048 154.368 734.648 154.16 733.96C153.824 734.472 153.104 735.176 151.744 735.176C149.904 735.176 148.608 734.104 148.608 732.44C148.608 730.84 149.728 729.96 151.648 729.96H154.048V729.928C154.048 728.968 153.408 728.328 152.368 728.328C151.296 728.328 150.96 728.952 150.864 729.144H148.832C148.912 728.488 149.712 726.696 152.336 726.696C154.768 726.696 156.016 728.024 156.016 729.976V732.664C156.016 733.112 156.208 733.352 156.576 733.4V735.048ZM152.224 733.656C153.2 733.656 154.048 733.064 154.048 732.216V731.368H151.968C151.184 731.368 150.64 731.72 150.64 732.408C150.64 733.16 151.216 733.656 152.224 733.656Z" fill="white"></path>
    <path d="M164.148 733.176V735H162.132C160.276 735 159.412 734.12 159.412 732.408V728.648H157.412V726.904H159.412V723.64H161.46V726.904H164.148V728.648H161.46V731.8C161.46 732.744 161.764 733.176 162.836 733.176H164.148Z" fill="white"></path>
    <path d="M169.493 726.696C171.813 726.696 173.317 728.376 173.317 730.936V731.272H167.669C167.733 732.552 168.437 733.496 169.653 733.496C170.757 733.496 171.157 732.888 171.285 732.712H173.269C173.141 733.544 172.261 735.208 169.653 735.208C167.173 735.208 165.637 733.4 165.637 730.952C165.637 728.44 167.141 726.696 169.493 726.696ZM169.493 728.264C168.469 728.264 167.877 728.904 167.701 729.928H171.253C171.061 728.856 170.453 728.264 169.493 728.264Z" fill="white"></path>
    <path d="M188.228 733.032V735H179.62V723.64H181.764V733.032H188.228Z" fill="white"></path>
    <path d="M189.986 725.608V723.176H192.114V725.608H189.986ZM190.018 735V726.904H192.066V735H190.018Z" fill="white"></path>
    <path d="M199.906 734.776V733.736C199.73 733.992 199.058 735.144 197.554 735.144C195.682 735.144 194.13 733.56 194.13 730.936C194.13 728.296 195.682 726.728 197.554 726.728C199.042 726.728 199.714 727.816 199.89 728.12V726.904H201.922V734.76C201.922 736.984 200.674 738.488 198.002 738.488C195.266 738.488 194.338 736.76 194.21 736.12H196.418C196.498 736.248 196.898 736.808 198.002 736.808C199.266 736.808 199.906 736.072 199.906 734.776ZM199.922 730.936C199.922 729.512 199.186 728.504 198.082 728.504C196.93 728.504 196.21 729.512 196.21 730.936C196.21 732.328 196.93 733.352 198.082 733.352C199.17 733.352 199.922 732.328 199.922 730.936Z" fill="white"></path>
    <path d="M206.452 730.536V735H204.42V723.224H206.452V728.104C206.756 727.528 207.524 726.728 208.82 726.728C210.676 726.728 211.876 728.056 211.876 730.152V735H209.828V730.536C209.828 729.256 209.188 728.552 208.164 728.552C207.076 728.552 206.452 729.256 206.452 730.536Z" fill="white"></path>
    <path d="M219.978 733.176V735H217.962C216.106 735 215.242 734.12 215.242 732.408V728.648H213.242V726.904H215.242V723.64H217.29V726.904H219.978V728.648H217.29V731.8C217.29 732.744 217.594 733.176 218.666 733.176H219.978Z" fill="white"></path>
    <path d="M136.844 757.001L137.628 754.327H135.346L134.548 757.001H133.442L134.226 754.327H132.42V753.333H134.52L135.332 750.589H133.512V749.595H135.626L136.382 747.061H137.502L136.746 749.595H139.028L139.784 747.061H140.904L140.148 749.595H141.954V750.589H139.854L139.042 753.333H140.862V754.327H138.748L137.95 757.001H136.844ZM135.64 753.333H137.922L138.734 750.589H136.452L135.64 753.333Z" fill="white"></path>
    <path d="M151.27 753.935H149.156V757.001H147.84V753.935H142.8V753.193L147.672 747.061H149.156V752.759H151.27V753.935ZM144.592 752.759H147.84V748.629L144.592 752.759Z" fill="white"></path>
    <path d="M156.583 746.893C158.683 746.893 160.055 748.237 160.055 750.519V753.543C160.055 755.937 158.641 757.169 156.583 757.169C154.525 757.169 153.111 755.937 153.111 753.543V750.519C153.111 748.237 154.483 746.893 156.583 746.893ZM156.583 755.937C157.997 755.937 158.711 754.915 158.711 753.529V750.533C158.711 749.147 157.997 748.125 156.583 748.125C155.169 748.125 154.455 749.147 154.455 750.533V753.529C154.455 754.915 155.169 755.937 156.583 755.937Z" fill="white"></path>
    <path d="M170.462 753.935H168.348V757.001H167.032V753.935H161.992V753.193L166.864 747.061H168.348V752.759H170.462V753.935ZM163.784 752.759H167.032V748.629L163.784 752.759Z" fill="white"></path>
    <path d="M175.775 746.893C177.875 746.893 179.247 748.237 179.247 750.519V753.543C179.247 755.937 177.833 757.169 175.775 757.169C173.717 757.169 172.303 755.937 172.303 753.543V750.519C172.303 748.237 173.675 746.893 175.775 746.893ZM175.775 755.937C177.189 755.937 177.903 754.915 177.903 753.529V750.533C177.903 749.147 177.189 748.125 175.775 748.125C174.361 748.125 173.647 749.147 173.647 750.533V753.529C173.647 754.915 174.361 755.937 175.775 755.937Z" fill="white"></path>
    <path d="M188.534 754.285C188.534 756.007 187.232 757.169 184.992 757.169C182.64 757.169 181.576 755.727 181.464 754.369H182.822C182.962 755.139 183.634 755.937 184.992 755.937C186.322 755.937 187.162 755.307 187.162 754.201C187.162 753.081 186.42 752.479 185.132 752.479H183.382V751.247H185.174C186.238 751.247 186.868 750.687 186.868 749.679C186.868 748.685 186.084 748.111 184.964 748.111C183.788 748.111 183.228 748.769 183.074 749.609H181.73C181.8 748.335 182.78 746.893 184.95 746.893C187.036 746.893 188.212 748.041 188.212 749.623C188.212 750.855 187.428 751.513 186.826 751.779C187.568 752.003 188.534 752.703 188.534 754.285Z" fill="white"></path>
    <path d="M191.007 757.001V747.061H198.147V748.321H192.351V751.093H195.767V752.353H192.351V755.741H198.665V757.001H191.007Z" fill="white"></path>
  </g>
  <g clip-path="url(#clip1_2528_8509)">
    <rect width="374" height="306" transform="translate(502 96)" fill="#666663"></rect>
    <path d="M544.096 143.193C541.008 143.193 538.992 140.729 538.992 137.321C538.992 133.929 541.024 131.449 544.096 131.449C547.296 131.449 548.592 133.689 548.768 135.129H546.672C546.464 134.537 545.712 133.417 544.096 133.417C542.224 133.417 541.232 135.193 541.232 137.321C541.232 139.449 542.224 141.225 544.096 141.225C545.744 141.225 546.48 140.089 546.688 139.497H548.768C548.64 140.825 547.344 143.193 544.096 143.193Z" fill="black"></path>
    <path d="M550.873 143.001V131.225H552.921V143.001H550.873Z" fill="black"></path>
    <path d="M558.937 134.697C561.305 134.697 562.921 136.441 562.921 138.953C562.921 141.433 561.305 143.209 558.937 143.209C556.585 143.209 554.969 141.433 554.969 138.953C554.969 136.441 556.585 134.697 558.937 134.697ZM558.937 141.417C560.185 141.417 560.841 140.345 560.841 138.953C560.841 137.561 560.185 136.489 558.937 136.489C557.689 136.489 557.033 137.561 557.033 138.953C557.033 140.313 557.689 141.417 558.937 141.417Z" fill="black"></path>
    <path d="M568.579 143.177C566.115 143.177 564.883 141.753 564.883 139.657V134.905H566.931V139.545C566.931 140.569 567.475 141.273 568.563 141.273C569.635 141.273 570.211 140.569 570.211 139.545V134.905H572.227V139.657C572.227 141.641 570.979 143.177 568.579 143.177Z" fill="black"></path>
    <path d="M580.103 143.001V141.785C579.943 142.153 579.239 143.177 577.703 143.177C575.767 143.177 574.231 141.593 574.231 138.953C574.231 136.281 575.767 134.713 577.703 134.713C579.255 134.713 579.911 135.737 580.087 136.057V131.225H582.119V143.001H580.103ZM580.119 138.953C580.119 137.545 579.383 136.505 578.199 136.505C576.999 136.505 576.311 137.545 576.311 138.953C576.311 140.361 576.999 141.401 578.199 141.401C579.383 141.401 580.119 140.361 580.119 138.953Z" fill="black"></path>
    <path d="M588.932 143.001V131.641H592.9C596.484 131.641 598.788 133.689 598.788 137.321C598.788 140.873 596.484 143.001 592.9 143.001H588.932ZM592.884 133.529H591.076V141.113H592.884C595.188 141.113 596.596 139.673 596.596 137.321C596.596 134.889 595.204 133.529 592.884 133.529Z" fill="black"></path>
    <path d="M608.426 143.049H607.786C606.826 143.049 606.218 142.649 606.01 141.961C605.674 142.473 604.954 143.177 603.594 143.177C601.754 143.177 600.458 142.105 600.458 140.441C600.458 138.841 601.578 137.961 603.498 137.961H605.898V137.929C605.898 136.969 605.258 136.329 604.218 136.329C603.146 136.329 602.81 136.953 602.714 137.145H600.682C600.762 136.489 601.562 134.697 604.186 134.697C606.618 134.697 607.866 136.025 607.866 137.977V140.665C607.866 141.113 608.058 141.353 608.426 141.401V143.049ZM604.074 141.657C605.05 141.657 605.898 141.065 605.898 140.217V139.369H603.818C603.034 139.369 602.49 139.721 602.49 140.409C602.49 141.161 603.066 141.657 604.074 141.657Z" fill="black"></path>
    <path d="M612.298 138.729V143.001H610.266V134.905H612.298V136.217C612.506 135.705 613.162 134.857 614.826 134.857H616.298V136.889H614.522C612.922 136.889 612.298 137.465 612.298 138.729Z" fill="black"></path>
    <path d="M623.469 143.001L620.045 139.305V143.001H618.029V131.225H620.045V138.249L623.261 134.905H625.821L622.141 138.681L626.109 143.001H623.469Z" fill="black"></path>
    <path d="M542.844 165.001L543.628 162.327H541.346L540.548 165.001H539.442L540.226 162.327H538.42V161.333H540.52L541.332 158.589H539.512V157.595H541.626L542.382 155.061H543.502L542.746 157.595H545.028L545.784 155.061H546.904L546.148 157.595H547.954V158.589H545.854L545.042 161.333H546.862V162.327H544.748L543.95 165.001H542.844ZM541.64 161.333H543.922L544.734 158.589H542.452L541.64 161.333Z" fill="black"></path>
    <path d="M556.387 161.781C556.387 163.685 555.043 165.169 552.803 165.169C550.535 165.169 549.247 163.741 549.247 161.781C549.247 160.269 549.975 159.233 550.857 158.099L553.181 155.061H554.791L551.893 158.743C552.229 158.561 552.663 158.449 553.209 158.449C555.057 158.449 556.387 159.723 556.387 161.781ZM555.029 161.781C555.029 160.549 554.259 159.597 552.803 159.597C551.459 159.597 550.605 160.549 550.605 161.781C550.605 162.971 551.403 163.937 552.803 163.937C554.259 163.937 555.029 162.971 555.029 161.781Z" fill="black"></path>
    <path d="M565.408 161.781C565.408 163.685 564.064 165.169 561.824 165.169C559.556 165.169 558.268 163.741 558.268 161.781C558.268 160.269 558.996 159.233 559.878 158.099L562.202 155.061H563.812L560.914 158.743C561.25 158.561 561.684 158.449 562.23 158.449C564.078 158.449 565.408 159.723 565.408 161.781ZM564.05 161.781C564.05 160.549 563.28 159.597 561.824 159.597C560.48 159.597 559.626 160.549 559.626 161.781C559.626 162.971 560.424 163.937 561.824 163.937C563.28 163.937 564.05 162.971 564.05 161.781Z" fill="black"></path>
    <path d="M574.43 161.781C574.43 163.685 573.086 165.169 570.846 165.169C568.578 165.169 567.29 163.741 567.29 161.781C567.29 160.269 568.018 159.233 568.9 158.099L571.224 155.061H572.834L569.936 158.743C570.272 158.561 570.706 158.449 571.252 158.449C573.1 158.449 574.43 159.723 574.43 161.781ZM573.072 161.781C573.072 160.549 572.302 159.597 570.846 159.597C569.502 159.597 568.648 160.549 568.648 161.781C568.648 162.971 569.446 163.937 570.846 163.937C572.302 163.937 573.072 162.971 573.072 161.781Z" fill="black"></path>
    <path d="M583.452 161.781C583.452 163.685 582.108 165.169 579.868 165.169C577.6 165.169 576.312 163.741 576.312 161.781C576.312 160.269 577.04 159.233 577.922 158.099L580.246 155.061H581.856L578.958 158.743C579.294 158.561 579.728 158.449 580.274 158.449C582.122 158.449 583.452 159.723 583.452 161.781ZM582.094 161.781C582.094 160.549 581.324 159.597 579.868 159.597C578.524 159.597 577.67 160.549 577.67 161.781C577.67 162.971 578.468 163.937 579.868 163.937C581.324 163.937 582.094 162.971 582.094 161.781Z" fill="black"></path>
    <path d="M592.474 161.781C592.474 163.685 591.13 165.169 588.89 165.169C586.622 165.169 585.334 163.741 585.334 161.781C585.334 160.269 586.062 159.233 586.944 158.099L589.268 155.061H590.878L587.98 158.743C588.316 158.561 588.75 158.449 589.296 158.449C591.144 158.449 592.474 159.723 592.474 161.781ZM591.116 161.781C591.116 160.549 590.346 159.597 588.89 159.597C587.546 159.597 586.692 160.549 586.692 161.781C586.692 162.971 587.49 163.937 588.89 163.937C590.346 163.937 591.116 162.971 591.116 161.781Z" fill="black"></path>
    <path d="M601.396 162.285C601.396 164.007 600.094 165.169 597.854 165.169C595.502 165.169 594.438 163.727 594.326 162.369H595.684C595.824 163.139 596.496 163.937 597.854 163.937C599.184 163.937 600.024 163.307 600.024 162.201C600.024 161.081 599.282 160.479 597.994 160.479H596.244V159.247H598.036C599.1 159.247 599.73 158.687 599.73 157.679C599.73 156.685 598.946 156.111 597.826 156.111C596.65 156.111 596.09 156.769 595.936 157.609H594.592C594.662 156.335 595.642 154.893 597.812 154.893C599.898 154.893 601.074 156.041 601.074 157.623C601.074 158.855 600.29 159.513 599.688 159.779C600.43 160.003 601.396 160.703 601.396 162.285Z" fill="black"></path>
    <rect width="374" height="306" transform="translate(502 392)" fill="#91918D"></rect>
    <path d="M544.096 439.192C541.008 439.192 538.992 436.728 538.992 433.32C538.992 429.928 541.024 427.448 544.096 427.448C547.296 427.448 548.592 429.688 548.768 431.128H546.672C546.464 430.536 545.712 429.416 544.096 429.416C542.224 429.416 541.232 431.192 541.232 433.32C541.232 435.448 542.224 437.224 544.096 437.224C545.744 437.224 546.48 436.088 546.688 435.496H548.768C548.64 436.824 547.344 439.192 544.096 439.192Z" fill="black"></path>
    <path d="M550.873 439V427.224H552.921V439H550.873Z" fill="black"></path>
    <path d="M558.937 430.696C561.305 430.696 562.921 432.44 562.921 434.952C562.921 437.432 561.305 439.208 558.937 439.208C556.585 439.208 554.969 437.432 554.969 434.952C554.969 432.44 556.585 430.696 558.937 430.696ZM558.937 437.416C560.185 437.416 560.841 436.344 560.841 434.952C560.841 433.56 560.185 432.488 558.937 432.488C557.689 432.488 557.033 433.56 557.033 434.952C557.033 436.312 557.689 437.416 558.937 437.416Z" fill="black"></path>
    <path d="M568.579 439.176C566.115 439.176 564.883 437.752 564.883 435.656V430.904H566.931V435.544C566.931 436.568 567.475 437.272 568.563 437.272C569.635 437.272 570.211 436.568 570.211 435.544V430.904H572.227V435.656C572.227 437.64 570.979 439.176 568.579 439.176Z" fill="black"></path>
    <path d="M580.103 439V437.784C579.943 438.152 579.239 439.176 577.703 439.176C575.767 439.176 574.231 437.592 574.231 434.952C574.231 432.28 575.767 430.712 577.703 430.712C579.255 430.712 579.911 431.736 580.087 432.056V427.224H582.119V439H580.103ZM580.119 434.952C580.119 433.544 579.383 432.504 578.199 432.504C576.999 432.504 576.311 433.544 576.311 434.952C576.311 436.36 576.999 437.4 578.199 437.4C579.383 437.4 580.119 436.36 580.119 434.952Z" fill="black"></path>
    <path d="M592.18 427.64L595.076 435.656L597.988 427.64H601.124V439H599.044V429.8L595.7 439.048H594.244L590.916 429.88V439H588.932V427.64H592.18Z" fill="black"></path>
    <path d="M607.284 430.696C609.604 430.696 611.108 432.376 611.108 434.936V435.272H605.46C605.524 436.552 606.228 437.496 607.444 437.496C608.548 437.496 608.948 436.888 609.076 436.712H611.06C610.932 437.544 610.052 439.208 607.444 439.208C604.964 439.208 603.428 437.4 603.428 434.952C603.428 432.44 604.932 430.696 607.284 430.696ZM607.284 432.264C606.26 432.264 605.668 432.904 605.492 433.928H609.044C608.852 432.856 608.244 432.264 607.284 432.264Z" fill="black"></path>
    <path d="M618.518 439V437.784C618.358 438.152 617.654 439.176 616.118 439.176C614.182 439.176 612.646 437.592 612.646 434.952C612.646 432.28 614.182 430.712 616.118 430.712C617.67 430.712 618.326 431.736 618.502 432.056V427.224H620.534V439H618.518ZM618.534 434.952C618.534 433.544 617.798 432.504 616.614 432.504C615.414 432.504 614.726 433.544 614.726 434.952C614.726 436.36 615.414 437.4 616.614 437.4C617.798 437.4 618.534 436.36 618.534 434.952Z" fill="black"></path>
    <path d="M622.997 429.608V427.176H625.125V429.608H622.997ZM623.029 439V430.904H625.077V439H623.029Z" fill="black"></path>
    <path d="M631.222 439.176C628.758 439.176 627.526 437.752 627.526 435.656V430.904H629.574V435.544C629.574 436.568 630.118 437.272 631.206 437.272C632.278 437.272 632.854 436.568 632.854 435.544V430.904H634.87V435.656C634.87 437.64 633.622 439.176 631.222 439.176Z" fill="black"></path>
    <path d="M639.354 434.392V439H637.322V430.904H639.354V432.008C639.61 431.496 640.378 430.728 641.642 430.728C642.906 430.728 643.802 431.336 644.298 432.296C644.586 431.672 645.386 430.728 646.922 430.728C648.842 430.728 650.026 432.104 650.026 434.024V439H647.978V434.392C647.978 433.288 647.434 432.552 646.346 432.552C645.258 432.552 644.682 433.304 644.682 434.392V439H642.634V434.392C642.634 433.288 642.074 432.552 641.002 432.552C639.914 432.552 639.354 433.304 639.354 434.392Z" fill="black"></path>
    <path d="M542.844 461.001L543.628 458.327H541.346L540.548 461.001H539.442L540.226 458.327H538.42V457.333H540.52L541.332 454.589H539.512V453.595H541.626L542.382 451.061H543.502L542.746 453.595H545.028L545.784 451.061H546.904L546.148 453.595H547.954V454.589H545.854L545.042 457.333H546.862V458.327H544.748L543.95 461.001H542.844ZM541.64 457.333H543.922L544.734 454.589H542.452L541.64 457.333Z" fill="black"></path>
    <path d="M554.845 457.963L552.521 461.001H550.911L553.809 457.319C553.473 457.501 553.039 457.613 552.493 457.613C550.645 457.613 549.315 456.339 549.315 454.281C549.315 452.377 550.659 450.893 552.899 450.893C555.167 450.893 556.455 452.321 556.455 454.281C556.455 455.793 555.727 456.815 554.845 457.963ZM550.673 454.281C550.673 455.513 551.443 456.465 552.899 456.465C554.243 456.465 555.097 455.513 555.097 454.281C555.097 453.119 554.299 452.125 552.899 452.125C551.443 452.125 550.673 453.119 550.673 454.281Z" fill="black"></path>
    <path d="M561.919 451.019V461.001H560.561V452.601L558.097 454.029V452.741L560.911 451.019H561.919Z" fill="black"></path>
    <path d="M570.099 457.963L567.775 461.001H566.165L569.063 457.319C568.727 457.501 568.293 457.613 567.747 457.613C565.899 457.613 564.569 456.339 564.569 454.281C564.569 452.377 565.913 450.893 568.153 450.893C570.421 450.893 571.709 452.321 571.709 454.281C571.709 455.793 570.981 456.815 570.099 457.963ZM565.927 454.281C565.927 455.513 566.697 456.465 568.153 456.465C569.497 456.465 570.351 455.513 570.351 454.281C570.351 453.119 569.553 452.125 568.153 452.125C566.697 452.125 565.927 453.119 565.927 454.281Z" fill="black"></path>
    <path d="M577.174 451.019V461.001H575.816V452.601L573.352 454.029V452.741L576.166 451.019H577.174Z" fill="black"></path>
    <path d="M587.076 458.313C587.076 459.993 585.774 461.169 583.66 461.169H583.282C581.21 461.169 579.936 459.993 579.936 458.313C579.936 456.913 580.944 456.101 581.714 455.877C581 455.653 580.132 454.981 580.132 453.637C580.132 452.069 581.266 450.893 583.324 450.893H583.688C585.76 450.893 586.88 452.069 586.88 453.637C586.88 454.981 586.012 455.653 585.298 455.877C586.068 456.101 587.076 456.913 587.076 458.313ZM583.688 452.097H583.324C582.204 452.097 581.476 452.727 581.476 453.693C581.476 454.659 582.204 455.289 583.324 455.289H583.688C584.808 455.289 585.536 454.659 585.536 453.693C585.536 452.727 584.808 452.097 583.688 452.097ZM583.716 456.493H583.296C582.12 456.493 581.308 457.165 581.308 458.229C581.308 459.293 582.12 459.965 583.296 459.965H583.716C584.906 459.965 585.704 459.293 585.704 458.229C585.704 457.165 584.906 456.493 583.716 456.493Z" fill="black"></path>
    <path d="M589.665 461.001V451.061H592.983C596.077 451.061 598.051 453.007 598.051 456.031C598.051 458.999 596.119 461.001 592.983 461.001H589.665ZM592.983 452.307H591.023V459.755H592.983C595.265 459.755 596.651 458.299 596.651 456.031C596.651 453.679 595.265 452.307 592.983 452.307Z" fill="black"></path>
    <rect width="374" height="296" transform="translate(502 688)" fill="#BFBFBA"></rect>
    <path d="M544.096 735.192C541.008 735.192 538.992 732.728 538.992 729.32C538.992 725.928 541.024 723.448 544.096 723.448C547.296 723.448 548.592 725.688 548.768 727.128H546.672C546.464 726.536 545.712 725.416 544.096 725.416C542.224 725.416 541.232 727.192 541.232 729.32C541.232 731.448 542.224 733.224 544.096 733.224C545.744 733.224 546.48 732.088 546.688 731.496H548.768C548.64 732.824 547.344 735.192 544.096 735.192Z" fill="black"></path>
    <path d="M550.873 735V723.224H552.921V735H550.873Z" fill="black"></path>
    <path d="M558.937 726.696C561.305 726.696 562.921 728.44 562.921 730.952C562.921 733.432 561.305 735.208 558.937 735.208C556.585 735.208 554.969 733.432 554.969 730.952C554.969 728.44 556.585 726.696 558.937 726.696ZM558.937 733.416C560.185 733.416 560.841 732.344 560.841 730.952C560.841 729.56 560.185 728.488 558.937 728.488C557.689 728.488 557.033 729.56 557.033 730.952C557.033 732.312 557.689 733.416 558.937 733.416Z" fill="black"></path>
    <path d="M568.579 735.176C566.115 735.176 564.883 733.752 564.883 731.656V726.904H566.931V731.544C566.931 732.568 567.475 733.272 568.563 733.272C569.635 733.272 570.211 732.568 570.211 731.544V726.904H572.227V731.656C572.227 733.64 570.979 735.176 568.579 735.176Z" fill="black"></path>
    <path d="M580.103 735V733.784C579.943 734.152 579.239 735.176 577.703 735.176C575.767 735.176 574.231 733.592 574.231 730.952C574.231 728.28 575.767 726.712 577.703 726.712C579.255 726.712 579.911 727.736 580.087 728.056V723.224H582.119V735H580.103ZM580.119 730.952C580.119 729.544 579.383 728.504 578.199 728.504C576.999 728.504 576.311 729.544 576.311 730.952C576.311 732.36 576.999 733.4 578.199 733.4C579.383 733.4 580.119 732.36 580.119 730.952Z" fill="black"></path>
    <path d="M597.54 733.032V735H588.932V723.64H591.076V733.032H597.54Z" fill="black"></path>
    <path d="M599.298 725.608V723.176H601.426V725.608H599.298ZM599.33 735V726.904H601.378V735H599.33Z" fill="black"></path>
    <path d="M609.219 734.776V733.736C609.043 733.992 608.371 735.144 606.867 735.144C604.995 735.144 603.443 733.56 603.443 730.936C603.443 728.296 604.995 726.728 606.867 726.728C608.355 726.728 609.027 727.816 609.203 728.12V726.904H611.235V734.76C611.235 736.984 609.987 738.488 607.315 738.488C604.579 738.488 603.651 736.76 603.523 736.12H605.731C605.811 736.248 606.211 736.808 607.315 736.808C608.579 736.808 609.219 736.072 609.219 734.776ZM609.235 730.936C609.235 729.512 608.499 728.504 607.395 728.504C606.243 728.504 605.523 729.512 605.523 730.936C605.523 732.328 606.243 733.352 607.395 733.352C608.483 733.352 609.235 732.328 609.235 730.936Z" fill="black"></path>
    <path d="M615.764 730.536V735H613.732V723.224H615.764V728.104C616.068 727.528 616.836 726.728 618.132 726.728C619.988 726.728 621.188 728.056 621.188 730.152V735H619.14V730.536C619.14 729.256 618.5 728.552 617.476 728.552C616.388 728.552 615.764 729.256 615.764 730.536Z" fill="black"></path>
    <path d="M629.29 733.176V735H627.274C625.418 735 624.554 734.12 624.554 732.408V728.648H622.554V726.904H624.554V723.64H626.602V726.904H629.29V728.648H626.602V731.8C626.602 732.744 626.906 733.176 627.978 733.176H629.29Z" fill="black"></path>
    <path d="M542.844 757L543.628 754.326H541.346L540.548 757H539.442L540.226 754.326H538.42V753.332H540.52L541.332 750.588H539.512V749.594H541.626L542.382 747.06H543.502L542.746 749.594H545.028L545.784 747.06H546.904L546.148 749.594H547.954V750.588H545.854L545.042 753.332H546.862V754.326H544.748L543.95 757H542.844ZM541.64 753.332H543.922L544.734 750.588H542.452L541.64 753.332Z" fill="black"></path>
    <path d="M549.847 757V747.06H554.691C556.595 747.06 557.603 748.068 557.603 749.734C557.603 750.798 556.819 751.568 556.035 751.792C556.987 752.044 557.827 752.87 557.827 754.144C557.827 755.894 556.679 757 554.369 757H549.847ZM554.621 748.306H551.191V751.246H554.635C555.629 751.246 556.203 750.728 556.203 749.776C556.203 748.768 555.629 748.306 554.621 748.306ZM554.327 752.492H551.191V755.754H554.327C555.783 755.754 556.441 755.138 556.441 754.116C556.441 753.066 555.783 752.492 554.327 752.492Z" fill="black"></path>
    <path d="M560.304 757V747.06H567.85V748.334H561.662V751.092H565.232V752.366H561.662V757H560.304Z" fill="black"></path>
    <path d="M569.846 757V747.06H574.69C576.594 747.06 577.602 748.068 577.602 749.734C577.602 750.798 576.818 751.568 576.034 751.792C576.986 752.044 577.826 752.87 577.826 754.144C577.826 755.894 576.678 757 574.368 757H569.846ZM574.62 748.306H571.19V751.246H574.634C575.628 751.246 576.202 750.728 576.202 749.776C576.202 748.768 575.628 748.306 574.62 748.306ZM574.326 752.492H571.19V755.754H574.326C575.782 755.754 576.44 755.138 576.44 754.116C576.44 753.066 575.782 752.492 574.326 752.492Z" fill="black"></path>
    <path d="M580.303 757V747.06H587.849V748.334H581.661V751.092H585.231V752.366H581.661V757H580.303Z" fill="black"></path>
    <path d="M589.844 757V747.06H594.688C596.592 747.06 597.6 748.068 597.6 749.734C597.6 750.798 596.816 751.568 596.032 751.792C596.984 752.044 597.824 752.87 597.824 754.144C597.824 755.894 596.676 757 594.366 757H589.844ZM594.618 748.306H591.188V751.246H594.632C595.626 751.246 596.2 750.728 596.2 749.776C596.2 748.768 595.626 748.306 594.618 748.306ZM594.324 752.492H591.188V755.754H594.324C595.78 755.754 596.438 755.138 596.438 754.116C596.438 753.066 595.78 752.492 594.324 752.492Z" fill="black"></path>
    <path d="M607.151 757L606.171 754.606H601.411L600.431 757H599.087L603.231 747.004H604.435L608.579 757H607.151ZM601.929 753.374H605.653L603.791 748.838L601.929 753.374Z" fill="black"></path>
  </g>
  <g clip-path="url(#clip2_2528_8509)">
    <rect width="374" height="306" transform="translate(908 96)" fill="#E5E5DF"></rect>
    <path d="M945.584 143.001V131.641H947.744V143.001H945.584Z" fill="black"></path>
    <path d="M957.872 134.905L954.752 143.097H952.752L949.488 134.905H951.76L953.776 140.361L955.776 134.905H957.872Z" fill="black"></path>
    <path d="M962.733 134.697C965.101 134.697 966.717 136.441 966.717 138.953C966.717 141.433 965.101 143.209 962.733 143.209C960.381 143.209 958.765 141.433 958.765 138.953C958.765 136.441 960.381 134.697 962.733 134.697ZM962.733 141.417C963.981 141.417 964.637 140.345 964.637 138.953C964.637 137.561 963.981 136.489 962.733 136.489C961.485 136.489 960.829 137.561 960.829 138.953C960.829 140.313 961.485 141.417 962.733 141.417Z" fill="black"></path>
    <path d="M970.775 138.729V143.001H968.743V134.905H970.775V136.217C970.983 135.705 971.639 134.857 973.303 134.857H974.775V136.889H972.999C971.399 136.889 970.775 137.465 970.775 138.729Z" fill="black"></path>
    <path d="M983.867 134.905L979.483 146.313H977.435L978.747 142.921L975.451 134.905H977.723L979.771 140.249L981.803 134.905H983.867Z" fill="black"></path>
    <path d="M989.635 143.001V131.641H993.603C997.187 131.641 999.491 133.689 999.491 137.321C999.491 140.873 997.187 143.001 993.603 143.001H989.635ZM993.587 133.529H991.779V141.113H993.587C995.891 141.113 997.299 139.673 997.299 137.321C997.299 134.889 995.907 133.529 993.587 133.529Z" fill="black"></path>
    <path d="M1009.13 143.049H1008.49C1007.53 143.049 1006.92 142.649 1006.71 141.961C1006.38 142.473 1005.66 143.177 1004.3 143.177C1002.46 143.177 1001.16 142.105 1001.16 140.441C1001.16 138.841 1002.28 137.961 1004.2 137.961H1006.6V137.929C1006.6 136.969 1005.96 136.329 1004.92 136.329C1003.85 136.329 1003.51 136.953 1003.42 137.145H1001.39C1001.47 136.489 1002.27 134.697 1004.89 134.697C1007.32 134.697 1008.57 136.025 1008.57 137.977V140.665C1008.57 141.113 1008.76 141.353 1009.13 141.401V143.049ZM1004.78 141.657C1005.75 141.657 1006.6 141.065 1006.6 140.217V139.369H1004.52C1003.74 139.369 1003.19 139.721 1003.19 140.409C1003.19 141.161 1003.77 141.657 1004.78 141.657Z" fill="black"></path>
    <path d="M1013 138.729V143.001H1010.97V134.905H1013V136.217C1013.21 135.705 1013.86 134.857 1015.53 134.857H1017V136.889H1015.22C1013.62 136.889 1013 137.465 1013 138.729Z" fill="black"></path>
    <path d="M1024.17 143.001L1020.75 139.305V143.001H1018.73V131.225H1020.75V138.249L1023.96 134.905H1026.52L1022.84 138.681L1026.81 143.001H1024.17Z" fill="black"></path>
    <path d="M948.844 165.001L949.628 162.327H947.346L946.548 165.001H945.442L946.226 162.327H944.42V161.333H946.52L947.332 158.589H945.512V157.595H947.626L948.382 155.061H949.502L948.746 157.595H951.028L951.784 155.061H952.904L952.148 157.595H953.954V158.589H951.854L951.042 161.333H952.862V162.327H950.748L949.95 165.001H948.844ZM947.64 161.333H949.922L950.734 158.589H948.452L947.64 161.333Z" fill="black"></path>
    <path d="M955.847 165.001V155.061H962.987V156.321H957.191V159.093H960.607V160.353H957.191V163.741H963.505V165.001H955.847Z" fill="black"></path>
    <path d="M965.636 160.605V155.061H971.74V156.293H966.924V159.177C967.316 158.785 967.974 158.449 968.94 158.449C970.648 158.449 972.118 159.639 972.118 161.725V161.879C972.118 163.811 970.718 165.169 968.632 165.169C966.35 165.169 965.258 163.769 965.146 162.257H966.476C966.588 162.929 967.078 163.937 968.632 163.937C969.906 163.937 970.774 163.069 970.774 161.879V161.739C970.774 160.465 969.92 159.681 968.632 159.681C967.386 159.681 966.91 160.381 966.756 160.605H965.636Z" fill="black"></path>
    <path d="M974.629 165.001V155.061H981.769V156.321H975.973V159.093H979.389V160.353H975.973V163.741H982.287V165.001H974.629Z" fill="black"></path>
    <path d="M991.921 161.935H989.807V165.001H988.491V161.935H983.451V161.193L988.323 155.061H989.807V160.759H991.921V161.935ZM985.243 160.759H988.491V156.629L985.243 160.759Z" fill="black"></path>
    <path d="M993.93 165.001V155.061H997.248C1000.34 155.061 1002.32 157.007 1002.32 160.031C1002.32 162.999 1000.38 165.001 997.248 165.001H993.93ZM997.248 156.307H995.288V163.755H997.248C999.53 163.755 1000.92 162.299 1000.92 160.031C1000.92 157.679 999.53 156.307 997.248 156.307Z" fill="black"></path>
    <path d="M1004.77 165.001V155.061H1012.32V156.335H1006.13V159.093H1009.7V160.367H1006.13V165.001H1004.77Z" fill="black"></path>
    <rect width="374" height="306" transform="translate(908 392)" fill="#F0F0EB"></rect>
    <path d="M945.584 439V427.64H947.744V439H945.584Z" fill="black"></path>
    <path d="M957.872 430.904L954.752 439.096H952.752L949.488 430.904H951.76L953.776 436.36L955.776 430.904H957.872Z" fill="black"></path>
    <path d="M962.733 430.696C965.101 430.696 966.717 432.44 966.717 434.952C966.717 437.432 965.101 439.208 962.733 439.208C960.381 439.208 958.765 437.432 958.765 434.952C958.765 432.44 960.381 430.696 962.733 430.696ZM962.733 437.416C963.981 437.416 964.637 436.344 964.637 434.952C964.637 433.56 963.981 432.488 962.733 432.488C961.485 432.488 960.829 433.56 960.829 434.952C960.829 436.312 961.485 437.416 962.733 437.416Z" fill="black"></path>
    <path d="M970.775 434.728V439H968.743V430.904H970.775V432.216C970.983 431.704 971.639 430.856 973.303 430.856H974.775V432.888H972.999C971.399 432.888 970.775 433.464 970.775 434.728Z" fill="black"></path>
    <path d="M983.867 430.904L979.483 442.312H977.435L978.747 438.92L975.451 430.904H977.723L979.771 436.248L981.803 430.904H983.867Z" fill="black"></path>
    <path d="M992.883 427.64L995.779 435.656L998.691 427.64H1001.83V439H999.747V429.8L996.403 439.048H994.947L991.619 429.88V439H989.635V427.64H992.883Z" fill="black"></path>
    <path d="M1007.99 430.696C1010.31 430.696 1011.81 432.376 1011.81 434.936V435.272H1006.16C1006.23 436.552 1006.93 437.496 1008.15 437.496C1009.25 437.496 1009.65 436.888 1009.78 436.712H1011.76C1011.63 437.544 1010.75 439.208 1008.15 439.208C1005.67 439.208 1004.13 437.4 1004.13 434.952C1004.13 432.44 1005.63 430.696 1007.99 430.696ZM1007.99 432.264C1006.96 432.264 1006.37 432.904 1006.19 433.928H1009.75C1009.55 432.856 1008.95 432.264 1007.99 432.264Z" fill="black"></path>
    <path d="M1019.22 439V437.784C1019.06 438.152 1018.36 439.176 1016.82 439.176C1014.88 439.176 1013.35 437.592 1013.35 434.952C1013.35 432.28 1014.88 430.712 1016.82 430.712C1018.37 430.712 1019.03 431.736 1019.2 432.056V427.224H1021.24V439H1019.22ZM1019.24 434.952C1019.24 433.544 1018.5 432.504 1017.32 432.504C1016.12 432.504 1015.43 433.544 1015.43 434.952C1015.43 436.36 1016.12 437.4 1017.32 437.4C1018.5 437.4 1019.24 436.36 1019.24 434.952Z" fill="black"></path>
    <path d="M1023.7 429.608V427.176H1025.83V429.608H1023.7ZM1023.73 439V430.904H1025.78V439H1023.73Z" fill="black"></path>
    <path d="M1031.92 439.176C1029.46 439.176 1028.23 437.752 1028.23 435.656V430.904H1030.28V435.544C1030.28 436.568 1030.82 437.272 1031.91 437.272C1032.98 437.272 1033.56 436.568 1033.56 435.544V430.904H1035.57V435.656C1035.57 437.64 1034.32 439.176 1031.92 439.176Z" fill="black"></path>
    <path d="M1040.06 434.392V439H1038.03V430.904H1040.06V432.008C1040.31 431.496 1041.08 430.728 1042.35 430.728C1043.61 430.728 1044.51 431.336 1045 432.296C1045.29 431.672 1046.09 430.728 1047.63 430.728C1049.55 430.728 1050.73 432.104 1050.73 434.024V439H1048.68V434.392C1048.68 433.288 1048.14 432.552 1047.05 432.552C1045.96 432.552 1045.39 433.304 1045.39 434.392V439H1043.34V434.392C1043.34 433.288 1042.78 432.552 1041.71 432.552C1040.62 432.552 1040.06 433.304 1040.06 434.392Z" fill="black"></path>
    <path d="M948.844 461.001L949.628 458.327H947.346L946.548 461.001H945.442L946.226 458.327H944.42V457.333H946.52L947.332 454.589H945.512V453.595H947.626L948.382 451.061H949.502L948.746 453.595H951.028L951.784 451.061H952.904L952.148 453.595H953.954V454.589H951.854L951.042 457.333H952.862V458.327H950.748L949.95 461.001H948.844ZM947.64 457.333H949.922L950.734 454.589H948.452L947.64 457.333Z" fill="black"></path>
    <path d="M955.847 461.001V451.061H963.393V452.335H957.205V455.093H960.775V456.367H957.205V461.001H955.847Z" fill="black"></path>
    <path d="M968.692 450.893C970.792 450.893 972.164 452.237 972.164 454.519V457.543C972.164 459.937 970.75 461.169 968.692 461.169C966.634 461.169 965.22 459.937 965.22 457.543V454.519C965.22 452.237 966.592 450.893 968.692 450.893ZM968.692 459.937C970.106 459.937 970.82 458.915 970.82 457.529V454.533C970.82 453.147 970.106 452.125 968.692 452.125C967.278 452.125 966.564 453.147 966.564 454.533V457.529C966.564 458.915 967.278 459.937 968.692 459.937Z" fill="black"></path>
    <path d="M975.012 461.001V451.061H982.558V452.335H976.37V455.093H979.94V456.367H976.37V461.001H975.012Z" fill="black"></path>
    <path d="M987.857 450.893C989.957 450.893 991.329 452.237 991.329 454.519V457.543C991.329 459.937 989.915 461.169 987.857 461.169C985.799 461.169 984.385 459.937 984.385 457.543V454.519C984.385 452.237 985.757 450.893 987.857 450.893ZM987.857 459.937C989.271 459.937 989.985 458.915 989.985 457.529V454.533C989.985 453.147 989.271 452.125 987.857 452.125C986.443 452.125 985.729 453.147 985.729 454.533V457.529C985.729 458.915 986.443 459.937 987.857 459.937Z" fill="black"></path>
    <path d="M994.176 461.001V451.061H1001.32V452.321H995.52V455.093H998.936V456.353H995.52V459.741H1001.83V461.001H994.176Z" fill="black"></path>
    <path d="M1003.91 461.001V451.061H1008.75C1010.66 451.061 1011.66 452.069 1011.66 453.735C1011.66 454.799 1010.88 455.569 1010.1 455.793C1011.05 456.045 1011.89 456.871 1011.89 458.145C1011.89 459.895 1010.74 461.001 1008.43 461.001H1003.91ZM1008.68 452.307H1005.25V455.247H1008.7C1009.69 455.247 1010.26 454.729 1010.26 453.777C1010.26 452.769 1009.69 452.307 1008.68 452.307ZM1008.39 456.493H1005.25V459.755H1008.39C1009.84 459.755 1010.5 459.139 1010.5 458.117C1010.5 457.067 1009.84 456.493 1008.39 456.493Z" fill="black"></path>
    <rect width="374" height="296" transform="translate(908 688)" fill="#FAFAF7"></rect>
    <path d="M945.584 735V723.64H947.744V735H945.584Z" fill="black"></path>
    <path d="M957.872 726.904L954.752 735.096H952.752L949.488 726.904H951.76L953.776 732.36L955.776 726.904H957.872Z" fill="black"></path>
    <path d="M962.733 726.696C965.101 726.696 966.717 728.44 966.717 730.952C966.717 733.432 965.101 735.208 962.733 735.208C960.381 735.208 958.765 733.432 958.765 730.952C958.765 728.44 960.381 726.696 962.733 726.696ZM962.733 733.416C963.981 733.416 964.637 732.344 964.637 730.952C964.637 729.56 963.981 728.488 962.733 728.488C961.485 728.488 960.829 729.56 960.829 730.952C960.829 732.312 961.485 733.416 962.733 733.416Z" fill="black"></path>
    <path d="M970.775 730.728V735H968.743V726.904H970.775V728.216C970.983 727.704 971.639 726.856 973.303 726.856H974.775V728.888H972.999C971.399 728.888 970.775 729.464 970.775 730.728Z" fill="black"></path>
    <path d="M983.867 726.904L979.483 738.312H977.435L978.747 734.92L975.451 726.904H977.723L979.771 732.248L981.803 726.904H983.867Z" fill="black"></path>
    <path d="M998.243 733.032V735H989.635V723.64H991.779V733.032H998.243Z" fill="black"></path>
    <path d="M1000 725.608V723.176H1002.13V725.608H1000ZM1000.03 735V726.904H1002.08V735H1000.03Z" fill="black"></path>
    <path d="M1009.92 734.776V733.736C1009.75 733.992 1009.07 735.144 1007.57 735.144C1005.7 735.144 1004.15 733.56 1004.15 730.936C1004.15 728.296 1005.7 726.728 1007.57 726.728C1009.06 726.728 1009.73 727.816 1009.91 728.12V726.904H1011.94V734.76C1011.94 736.984 1010.69 738.488 1008.02 738.488C1005.28 738.488 1004.35 736.76 1004.23 736.12H1006.43C1006.51 736.248 1006.91 736.808 1008.02 736.808C1009.28 736.808 1009.92 736.072 1009.92 734.776ZM1009.94 730.936C1009.94 729.512 1009.2 728.504 1008.1 728.504C1006.95 728.504 1006.23 729.512 1006.23 730.936C1006.23 732.328 1006.95 733.352 1008.1 733.352C1009.19 733.352 1009.94 732.328 1009.94 730.936Z" fill="black"></path>
    <path d="M1016.47 730.536V735H1014.44V723.224H1016.47V728.104C1016.77 727.528 1017.54 726.728 1018.84 726.728C1020.69 726.728 1021.89 728.056 1021.89 730.152V735H1019.84V730.536C1019.84 729.256 1019.2 728.552 1018.18 728.552C1017.09 728.552 1016.47 729.256 1016.47 730.536Z" fill="black"></path>
    <path d="M1029.99 733.176V735H1027.98C1026.12 735 1025.26 734.12 1025.26 732.408V728.648H1023.26V726.904H1025.26V723.64H1027.31V726.904H1029.99V728.648H1027.31V731.8C1027.31 732.744 1027.61 733.176 1028.68 733.176H1029.99Z" fill="black"></path>
    <path d="M948.844 757L949.628 754.326H947.346L946.548 757H945.442L946.226 754.326H944.42V753.332H946.52L947.332 750.588H945.512V749.594H947.626L948.382 747.06H949.502L948.746 749.594H951.028L951.784 747.06H952.904L952.148 749.594H953.954V750.588H951.854L951.042 753.332H952.862V754.326H950.748L949.95 757H948.844ZM947.64 753.332H949.922L950.734 750.588H948.452L947.64 753.332Z" fill="black"></path>
    <path d="M955.847 757V747.06H963.393V748.334H957.205V751.092H960.775V752.366H957.205V757H955.847Z" fill="black"></path>
    <path d="M971.116 757L970.136 754.606H965.376L964.396 757H963.052L967.196 747.004H968.4L972.544 757H971.116ZM965.894 753.374H969.618L967.756 748.838L965.894 753.374Z" fill="black"></path>
    <path d="M974.478 757V747.06H982.024V748.334H975.836V751.092H979.406V752.366H975.836V757H974.478Z" fill="black"></path>
    <path d="M989.748 757L988.768 754.606H984.008L983.028 757H981.684L985.828 747.004H987.032L991.176 757H989.748ZM984.526 753.374H988.25L986.388 748.838L984.526 753.374Z" fill="black"></path>
    <path d="M993.11 757V747.06H1000.66V748.334H994.468V751.092H998.038V752.366H994.468V757H993.11Z" fill="black"></path>
    <path d="M1008.99 748.082L1004.07 757H1002.58L1007.45 748.292H1002.02V747.06H1008.99V748.082Z" fill="black"></path>
  </g>
  <g clip-path="url(#clip3_2528_8509)">
    <rect width="374" height="306" transform="translate(1314 96)" fill="#CC785C"></rect>
    <path d="M1351.57 143.001V131.641H1357.38C1359.66 131.641 1360.88 132.825 1360.88 134.681C1360.88 135.929 1359.98 136.777 1359.1 137.033C1360.19 137.337 1361.15 138.249 1361.15 139.753C1361.15 141.737 1359.79 143.001 1357.17 143.001H1351.57ZM1357.1 133.465H1353.68V136.249H1357.12C1358.08 136.249 1358.67 135.769 1358.67 134.857C1358.67 133.897 1358.08 133.465 1357.1 133.465ZM1356.9 138.057H1353.68V141.177H1356.9C1358.29 141.177 1358.94 140.617 1358.94 139.609C1358.94 138.601 1358.29 138.057 1356.9 138.057Z" fill="black"></path>
    <path d="M1366.83 134.697C1369.2 134.697 1370.81 136.441 1370.81 138.953C1370.81 141.433 1369.2 143.209 1366.83 143.209C1364.48 143.209 1362.86 141.433 1362.86 138.953C1362.86 136.441 1364.48 134.697 1366.83 134.697ZM1366.83 141.417C1368.08 141.417 1368.73 140.345 1368.73 138.953C1368.73 137.561 1368.08 136.489 1366.83 136.489C1365.58 136.489 1364.93 137.561 1364.93 138.953C1364.93 140.313 1365.58 141.417 1366.83 141.417Z" fill="black"></path>
    <path d="M1376.33 134.697C1378.7 134.697 1380.31 136.441 1380.31 138.953C1380.31 141.433 1378.7 143.209 1376.33 143.209C1373.98 143.209 1372.36 141.433 1372.36 138.953C1372.36 136.441 1373.98 134.697 1376.33 134.697ZM1376.33 141.417C1377.58 141.417 1378.23 140.345 1378.23 138.953C1378.23 137.561 1377.58 136.489 1376.33 136.489C1375.08 136.489 1374.42 137.561 1374.42 138.953C1374.42 140.313 1375.08 141.417 1376.33 141.417Z" fill="black"></path>
    <path d="M1387.78 143.001L1384.35 139.305V143.001H1382.34V131.225H1384.35V138.249L1387.57 134.905H1390.13L1386.45 138.681L1390.42 143.001H1387.78Z" fill="black"></path>
    <path d="M1400.43 143.193C1397.34 143.193 1395.33 140.729 1395.33 137.321C1395.33 133.929 1397.36 131.449 1400.43 131.449C1403.63 131.449 1404.93 133.689 1405.1 135.129H1403.01C1402.8 134.537 1402.05 133.417 1400.43 133.417C1398.56 133.417 1397.57 135.193 1397.57 137.321C1397.57 139.449 1398.56 141.225 1400.43 141.225C1402.08 141.225 1402.81 140.089 1403.02 139.497H1405.1C1404.97 140.825 1403.68 143.193 1400.43 143.193Z" fill="black"></path>
    <path d="M1407.21 143.001V131.225H1409.26V143.001H1407.21Z" fill="black"></path>
    <path d="M1415.27 134.697C1417.64 134.697 1419.26 136.441 1419.26 138.953C1419.26 141.433 1417.64 143.209 1415.27 143.209C1412.92 143.209 1411.3 141.433 1411.3 138.953C1411.3 136.441 1412.92 134.697 1415.27 134.697ZM1415.27 141.417C1416.52 141.417 1417.18 140.345 1417.18 138.953C1417.18 137.561 1416.52 136.489 1415.27 136.489C1414.02 136.489 1413.37 137.561 1413.37 138.953C1413.37 140.313 1414.02 141.417 1415.27 141.417Z" fill="black"></path>
    <path d="M1427.09 141.177V143.001H1425.08C1423.22 143.001 1422.36 142.121 1422.36 140.409V136.649H1420.36V134.905H1422.36V131.641H1424.4V134.905H1427.09V136.649H1424.4V139.801C1424.4 140.745 1424.71 141.177 1425.78 141.177H1427.09Z" fill="black"></path>
    <path d="M1431.09 138.537V143.001H1429.06V131.225H1431.09V136.105C1431.4 135.529 1432.16 134.729 1433.46 134.729C1435.32 134.729 1436.52 136.057 1436.52 138.153V143.001H1434.47V138.537C1434.47 137.257 1433.83 136.553 1432.8 136.553C1431.72 136.553 1431.09 137.257 1431.09 138.537Z" fill="black"></path>
    <path d="M1354.84 165.001L1355.63 162.327H1353.35L1352.55 165.001H1351.44L1352.23 162.327H1350.42V161.333H1352.52L1353.33 158.589H1351.51V157.595H1353.63L1354.38 155.061H1355.5L1354.75 157.595H1357.03L1357.78 155.061H1358.9L1358.15 157.595H1359.95V158.589H1357.85L1357.04 161.333H1358.86V162.327H1356.75L1355.95 165.001H1354.84ZM1353.64 161.333H1355.92L1356.73 158.589H1354.45L1353.64 161.333Z" fill="black"></path>
    <path d="M1365.64 165.169C1362.98 165.169 1361.31 162.901 1361.31 160.031C1361.31 157.175 1362.99 154.893 1365.64 154.893C1368.36 154.893 1369.45 156.783 1369.63 157.959H1368.29C1368.06 157.357 1367.32 156.167 1365.64 156.167C1363.72 156.167 1362.74 157.959 1362.74 160.031C1362.74 162.103 1363.72 163.895 1365.64 163.895C1367.33 163.895 1368.09 162.677 1368.31 162.075H1369.63C1369.48 163.237 1368.33 165.169 1365.64 165.169Z" fill="black"></path>
    <path d="M1375.73 165.169C1373.07 165.169 1371.4 162.901 1371.4 160.031C1371.4 157.175 1373.08 154.893 1375.73 154.893C1378.45 154.893 1379.54 156.783 1379.72 157.959H1378.38C1378.15 157.357 1377.41 156.167 1375.73 156.167C1373.81 156.167 1372.83 157.959 1372.83 160.031C1372.83 162.103 1373.81 163.895 1375.73 163.895C1377.42 163.895 1378.18 162.677 1378.4 162.075H1379.72C1379.57 163.237 1378.42 165.169 1375.73 165.169Z" fill="black"></path>
    <path d="M1388.43 156.083L1383.51 165.001H1382.02L1386.89 156.293H1381.46V155.061H1388.43V156.083Z" fill="black"></path>
    <path d="M1397.33 162.313C1397.33 163.993 1396.03 165.169 1393.91 165.169H1393.53C1391.46 165.169 1390.19 163.993 1390.19 162.313C1390.19 160.913 1391.2 160.101 1391.97 159.877C1391.25 159.653 1390.38 158.981 1390.38 157.637C1390.38 156.069 1391.52 154.893 1393.58 154.893H1393.94C1396.01 154.893 1397.13 156.069 1397.13 157.637C1397.13 158.981 1396.26 159.653 1395.55 159.877C1396.32 160.101 1397.33 160.913 1397.33 162.313ZM1393.94 156.097H1393.58C1392.46 156.097 1391.73 156.727 1391.73 157.693C1391.73 158.659 1392.46 159.289 1393.58 159.289H1393.94C1395.06 159.289 1395.79 158.659 1395.79 157.693C1395.79 156.727 1395.06 156.097 1393.94 156.097ZM1393.97 160.493H1393.55C1392.37 160.493 1391.56 161.165 1391.56 162.229C1391.56 163.293 1392.37 163.965 1393.55 163.965H1393.97C1395.16 163.965 1395.96 163.293 1395.96 162.229C1395.96 161.165 1395.16 160.493 1393.97 160.493Z" fill="black"></path>
    <path d="M1399.97 160.605V155.061H1406.08V156.293H1401.26V159.177C1401.65 158.785 1402.31 158.449 1403.28 158.449C1404.98 158.449 1406.45 159.639 1406.45 161.725V161.879C1406.45 163.811 1405.05 165.169 1402.97 165.169C1400.69 165.169 1399.59 163.769 1399.48 162.257H1400.81C1400.92 162.929 1401.41 163.937 1402.97 163.937C1404.24 163.937 1405.11 163.069 1405.11 161.879V161.739C1405.11 160.465 1404.26 159.681 1402.97 159.681C1401.72 159.681 1401.25 160.381 1401.09 160.605H1399.97Z" fill="black"></path>
    <path d="M1412.76 165.169C1410.1 165.169 1408.43 162.901 1408.43 160.031C1408.43 157.175 1410.11 154.893 1412.76 154.893C1415.48 154.893 1416.57 156.783 1416.75 157.959H1415.41C1415.18 157.357 1414.44 156.167 1412.76 156.167C1410.84 156.167 1409.86 157.959 1409.86 160.031C1409.86 162.103 1410.84 163.895 1412.76 163.895C1414.45 163.895 1415.21 162.677 1415.43 162.075H1416.75C1416.6 163.237 1415.45 165.169 1412.76 165.169Z" fill="black"></path>
    <rect width="374" height="306" transform="translate(1314 392)" fill="#D4A27F"></rect>
    <path d="M1358.83 439.001L1353.71 433.849V439.001H1351.57V427.641H1353.71V432.681L1358.69 427.641H1361.44L1355.98 433.145L1361.73 439.001H1358.83Z" fill="black"></path>
    <path d="M1365.08 434.729V439.001H1363.04V430.905H1365.08V432.217C1365.28 431.705 1365.94 430.857 1367.6 430.857H1369.08V432.889H1367.3C1365.7 432.889 1365.08 433.465 1365.08 434.729Z" fill="black"></path>
    <path d="M1378.17 439.049H1377.53C1376.57 439.049 1375.96 438.649 1375.75 437.961C1375.42 438.473 1374.7 439.177 1373.34 439.177C1371.5 439.177 1370.2 438.105 1370.2 436.441C1370.2 434.841 1371.32 433.961 1373.24 433.961H1375.64V433.929C1375.64 432.969 1375 432.329 1373.96 432.329C1372.89 432.329 1372.55 432.953 1372.46 433.145H1370.43C1370.51 432.489 1371.31 430.697 1373.93 430.697C1376.36 430.697 1377.61 432.025 1377.61 433.977V436.665C1377.61 437.113 1377.8 437.353 1378.17 437.401V439.049ZM1373.82 437.657C1374.79 437.657 1375.64 437.065 1375.64 436.217V435.369H1373.56C1372.78 435.369 1372.23 435.721 1372.23 436.409C1372.23 437.161 1372.81 437.657 1373.82 437.657Z" fill="black"></path>
    <path d="M1385.63 432.633H1383.05V439.001H1381.01V432.633H1379.01V430.905H1381.01V429.721C1381.01 428.137 1381.85 427.225 1383.69 427.225H1386.75V428.857H1384.33C1383.42 428.857 1383.05 429.289 1383.05 430.121V430.905H1385.63V432.633Z" fill="black"></path>
    <path d="M1393.18 437.177V439.001H1391.16C1389.3 439.001 1388.44 438.121 1388.44 436.409V432.649H1386.44V430.905H1388.44V427.641H1390.49V430.905H1393.18V432.649H1390.49V435.801C1390.49 436.745 1390.79 437.177 1391.86 437.177H1393.18Z" fill="black"></path>
    <path d="M1354.84 461.001L1355.63 458.327H1353.35L1352.55 461.001H1351.44L1352.23 458.327H1350.42V457.333H1352.52L1353.33 454.589H1351.51V453.595H1353.63L1354.38 451.061H1355.5L1354.75 453.595H1357.03L1357.78 451.061H1358.9L1358.15 453.595H1359.95V454.589H1357.85L1357.04 457.333H1358.86V458.327H1356.75L1355.95 461.001H1354.84ZM1353.64 457.333H1355.92L1356.73 454.589H1354.45L1353.64 457.333Z" fill="black"></path>
    <path d="M1361.85 461.001V451.061H1365.16C1368.26 451.061 1370.23 453.007 1370.23 456.031C1370.23 458.999 1368.3 461.001 1365.16 461.001H1361.85ZM1365.16 452.307H1363.2V459.755H1365.16C1367.45 459.755 1368.83 458.299 1368.83 456.031C1368.83 453.679 1367.45 452.307 1365.16 452.307Z" fill="black"></path>
    <path d="M1380.25 457.935H1378.13V461.001H1376.82V457.935H1371.78V457.193L1376.65 451.061H1378.13V456.759H1380.25V457.935ZM1373.57 456.759H1376.82V452.629L1373.57 456.759Z" fill="black"></path>
    <path d="M1389.24 461.001L1388.26 458.607H1383.5L1382.52 461.001H1381.18L1385.32 451.005H1386.53L1390.67 461.001H1389.24ZM1384.02 457.375H1387.74L1385.88 452.839L1384.02 457.375Z" fill="black"></path>
    <path d="M1399.1 459.769V461.001H1392.11V460.161L1395.47 456.843C1396.55 455.765 1397.17 455.037 1397.17 453.959C1397.17 452.853 1396.48 452.125 1395.32 452.125C1394.16 452.125 1393.47 452.937 1393.47 454.071V454.715H1392.14V454.057C1392.14 452.223 1393.35 450.893 1395.32 450.893C1397.29 450.893 1398.53 452.209 1398.53 453.959C1398.53 455.527 1397.57 456.521 1396.36 457.711L1394.26 459.769H1399.1Z" fill="black"></path>
    <path d="M1407.53 452.083L1402.6 461.001H1401.12L1405.99 452.293H1400.56V451.061H1407.53V452.083Z" fill="black"></path>
    <path d="M1409.77 461.001V451.061H1417.32V452.335H1411.13V455.093H1414.7V456.367H1411.13V461.001H1409.77Z" fill="black"></path>
    <rect width="374" height="296" transform="translate(1314 688)" fill="#EBDBBC"></rect>
    <path d="M1354.82 723.64L1357.71 731.656L1360.62 723.64H1363.76V735H1361.68V725.8L1358.34 735.048H1356.88L1353.55 725.88V735H1351.57V723.64H1354.82Z" fill="black"></path>
    <path d="M1373.98 735.048H1373.34C1372.38 735.048 1371.78 734.648 1371.57 733.96C1371.23 734.472 1370.51 735.176 1369.15 735.176C1367.31 735.176 1366.02 734.104 1366.02 732.44C1366.02 730.84 1367.14 729.96 1369.06 729.96H1371.46V729.928C1371.46 728.968 1370.82 728.328 1369.78 728.328C1368.7 728.328 1368.37 728.952 1368.27 729.144H1366.24C1366.32 728.488 1367.12 726.696 1369.74 726.696C1372.18 726.696 1373.42 728.024 1373.42 729.976V732.664C1373.42 733.112 1373.62 733.352 1373.98 733.4V735.048ZM1369.63 733.656C1370.61 733.656 1371.46 733.064 1371.46 732.216V731.368H1369.38C1368.59 731.368 1368.05 731.72 1368.05 732.408C1368.05 733.16 1368.62 733.656 1369.63 733.656Z" fill="black"></path>
    <path d="M1377.86 730.472V735H1375.82V726.904H1377.86V728.072C1378.16 727.512 1378.93 726.728 1380.22 726.728C1382.08 726.728 1383.28 728.008 1383.28 730.104V735H1381.23V730.472C1381.23 729.208 1380.59 728.552 1379.57 728.552C1378.48 728.552 1377.86 729.256 1377.86 730.472Z" fill="black"></path>
    <path d="M1385.7 725.608V723.176H1387.82V725.608H1385.7ZM1385.73 735V726.904H1387.78V735H1385.73Z" fill="black"></path>
    <path d="M1390.32 735V723.224H1392.37V735H1390.32Z" fill="black"></path>
    <path d="M1395.01 735V723.224H1397.05V735H1395.01Z" fill="black"></path>
    <path d="M1407.02 735.048H1406.38C1405.42 735.048 1404.81 734.648 1404.61 733.96C1404.27 734.472 1403.55 735.176 1402.19 735.176C1400.35 735.176 1399.05 734.104 1399.05 732.44C1399.05 730.84 1400.17 729.96 1402.09 729.96H1404.49V729.928C1404.49 728.968 1403.85 728.328 1402.81 728.328C1401.74 728.328 1401.41 728.952 1401.31 729.144H1399.28C1399.36 728.488 1400.16 726.696 1402.78 726.696C1405.21 726.696 1406.46 728.024 1406.46 729.976V732.664C1406.46 733.112 1406.65 733.352 1407.02 733.4V735.048ZM1402.67 733.656C1403.65 733.656 1404.49 733.064 1404.49 732.216V731.368H1402.41C1401.63 731.368 1401.09 731.72 1401.09 732.408C1401.09 733.16 1401.66 733.656 1402.67 733.656Z" fill="black"></path>
    <path d="M1354.84 757.001L1355.63 754.327H1353.35L1352.55 757.001H1351.44L1352.23 754.327H1350.42V753.333H1352.52L1353.33 750.589H1351.51V749.595H1353.63L1354.38 747.061H1355.5L1354.75 749.595H1357.03L1357.78 747.061H1358.9L1358.15 749.595H1359.95V750.589H1357.85L1357.04 753.333H1358.86V754.327H1356.75L1355.95 757.001H1354.84ZM1353.64 753.333H1355.92L1356.73 750.589H1354.45L1353.64 753.333Z" fill="black"></path>
    <path d="M1361.85 757.001V747.061H1368.99V748.321H1363.19V751.093H1366.61V752.353H1363.19V755.741H1369.5V757.001H1361.85Z" fill="black"></path>
    <path d="M1371.58 757.001V747.061H1376.42C1378.33 747.061 1379.34 748.069 1379.34 749.735C1379.34 750.799 1378.55 751.569 1377.77 751.793C1378.72 752.045 1379.56 752.871 1379.56 754.145C1379.56 755.895 1378.41 757.001 1376.1 757.001H1371.58ZM1376.35 748.307H1372.92V751.247H1376.37C1377.36 751.247 1377.94 750.729 1377.94 749.777C1377.94 748.769 1377.36 748.307 1376.35 748.307ZM1376.06 752.493H1372.92V755.755H1376.06C1377.52 755.755 1378.17 755.139 1378.17 754.117C1378.17 753.067 1377.52 752.493 1376.06 752.493Z" fill="black"></path>
    <path d="M1382.04 757.001V747.061H1385.35C1388.45 747.061 1390.42 749.007 1390.42 752.031C1390.42 754.999 1388.49 757.001 1385.35 757.001H1382.04ZM1385.35 748.307H1383.39V755.755H1385.35C1387.64 755.755 1389.02 754.299 1389.02 752.031C1389.02 749.679 1387.64 748.307 1385.35 748.307Z" fill="black"></path>
    <path d="M1392.88 757.001V747.061H1397.72C1399.63 747.061 1400.63 748.069 1400.63 749.735C1400.63 750.799 1399.85 751.569 1399.07 751.793C1400.02 752.045 1400.86 752.871 1400.86 754.145C1400.86 755.895 1399.71 757.001 1397.4 757.001H1392.88ZM1397.65 748.307H1394.22V751.247H1397.67C1398.66 751.247 1399.23 750.729 1399.23 749.777C1399.23 748.769 1398.66 748.307 1397.65 748.307ZM1397.36 752.493H1394.22V755.755H1397.36C1398.81 755.755 1399.47 755.139 1399.47 754.117C1399.47 753.067 1398.81 752.493 1397.36 752.493Z" fill="black"></path>
    <path d="M1403.33 757.001V747.061H1408.18C1410.08 747.061 1411.09 748.069 1411.09 749.735C1411.09 750.799 1410.31 751.569 1409.52 751.793C1410.47 752.045 1411.31 752.871 1411.31 754.145C1411.31 755.895 1410.17 757.001 1407.86 757.001H1403.33ZM1408.11 748.307H1404.68V751.247H1408.12C1409.12 751.247 1409.69 750.729 1409.69 749.777C1409.69 748.769 1409.12 748.307 1408.11 748.307ZM1407.81 752.493H1404.68V755.755H1407.81C1409.27 755.755 1409.93 755.139 1409.93 754.117C1409.93 753.067 1409.27 752.493 1407.81 752.493Z" fill="black"></path>
    <path d="M1417.65 757.169C1414.99 757.169 1413.33 754.901 1413.33 752.031C1413.33 749.175 1415.01 746.893 1417.65 746.893C1420.37 746.893 1421.46 748.783 1421.64 749.959H1420.3C1420.08 749.357 1419.33 748.167 1417.65 748.167C1415.74 748.167 1414.76 749.959 1414.76 752.031C1414.76 754.103 1415.74 755.895 1417.65 755.895C1419.35 755.895 1420.1 754.677 1420.33 754.075H1421.64C1421.49 755.237 1420.34 757.169 1417.65 757.169Z" fill="black"></path>
  </g>
  <g clip-path="url(#clip4_2528_8509)">
    <rect width="104" height="297" transform="translate(1720 96)" fill="black"></rect>
    <path d="M1766 354.432L1754.64 354.432L1754.64 348.624C1754.64 346.336 1755.82 345.12 1757.68 345.12C1758.93 345.12 1759.78 346.016 1760.03 346.896C1760.34 345.808 1761.25 344.848 1762.75 344.848C1764.74 344.848 1766 346.208 1766 348.832L1766 354.432ZM1756.46 348.896L1756.46 352.32L1759.25 352.32L1759.25 348.88C1759.25 347.92 1758.77 347.328 1757.86 347.328C1756.9 347.328 1756.46 347.92 1756.46 348.896ZM1761.06 349.104L1761.06 352.32L1764.18 352.32L1764.18 349.104C1764.18 347.712 1763.62 347.056 1762.61 347.056C1761.6 347.056 1761.06 347.712 1761.06 349.104Z" fill="white"></path>
    <path d="M1766 342.627L1754.22 342.627L1754.22 340.579L1766 340.579L1766 342.627Z" fill="white"></path>
    <path d="M1766.05 330.611L1766.05 331.251C1766.05 332.211 1765.65 332.819 1764.96 333.027C1765.47 333.363 1766.18 334.083 1766.18 335.443C1766.18 337.283 1765.1 338.579 1763.44 338.579C1761.84 338.579 1760.96 337.459 1760.96 335.539L1760.96 333.139L1760.93 333.139C1759.97 333.139 1759.33 333.779 1759.33 334.819C1759.33 335.891 1759.95 336.227 1760.14 336.323L1760.14 338.355C1759.49 338.275 1757.7 337.475 1757.7 334.851C1757.7 332.419 1759.02 331.171 1760.98 331.171L1763.66 331.171C1764.11 331.171 1764.35 330.979 1764.4 330.611L1766.05 330.611ZM1764.66 334.963C1764.66 333.987 1764.06 333.139 1763.22 333.139L1762.37 333.139L1762.37 335.219C1762.37 336.003 1762.72 336.547 1763.41 336.547C1764.16 336.547 1764.66 335.971 1764.66 334.963Z" fill="white"></path>
    <path d="M1760.5 321.892L1760.5 323.86C1760.22 323.988 1759.49 324.356 1759.49 325.412C1759.49 326.5 1760.54 327.172 1761.95 327.172C1763.36 327.172 1764.42 326.484 1764.42 325.396C1764.42 324.308 1763.66 323.972 1763.41 323.844L1763.41 321.892C1764.26 321.972 1766.21 322.82 1766.21 325.444C1766.21 327.62 1764.46 329.252 1761.95 329.252C1759.44 329.252 1757.7 327.636 1757.7 325.46C1757.7 322.868 1759.6 321.972 1760.5 321.892Z" fill="white"></path>
    <path d="M1766 314.568L1762.3 317.992L1766 317.992L1766 320.008L1754.22 320.008L1754.22 317.992L1761.25 317.992L1757.9 314.776L1757.9 312.216L1761.68 315.896L1766 311.928L1766 314.568Z" fill="white"></path>
    <path d="M1788 351.156L1785.33 350.372L1785.33 352.654L1788 353.452L1788 354.558L1785.33 353.774L1785.33 355.58L1784.33 355.58L1784.33 353.48L1781.59 352.668L1781.59 354.488L1780.59 354.488L1780.59 352.374L1778.06 351.618L1778.06 350.498L1780.59 351.254L1780.59 348.972L1778.06 348.216L1778.06 347.096L1780.59 347.852L1780.59 346.046L1781.59 346.046L1781.59 348.146L1784.33 348.958L1784.33 347.138L1785.33 347.138L1785.33 349.252L1788 350.05L1788 351.156ZM1784.33 352.36L1784.33 350.078L1781.59 349.266L1781.59 351.548L1784.33 352.36Z" fill="white"></path>
    <path d="M1777.89 340.849C1777.89 338.749 1779.24 337.377 1781.52 337.377L1784.54 337.377C1786.94 337.377 1788.17 338.791 1788.17 340.849C1788.17 342.907 1786.94 344.321 1784.54 344.321L1781.52 344.321C1779.24 344.321 1777.89 342.949 1777.89 340.849ZM1786.94 340.849C1786.94 339.435 1785.91 338.721 1784.53 338.721L1781.53 338.721C1780.15 338.721 1779.12 339.435 1779.12 340.849C1779.12 342.263 1780.15 342.977 1781.53 342.977L1784.53 342.977C1785.91 342.977 1786.94 342.263 1786.94 340.849Z" fill="white"></path>
    <path d="M1777.89 331.226C1777.89 329.126 1779.24 327.754 1781.52 327.754L1784.54 327.754C1786.94 327.754 1788.17 329.168 1788.17 331.226C1788.17 333.284 1786.94 334.698 1784.54 334.698L1781.52 334.698C1779.24 334.698 1777.89 333.326 1777.89 331.226ZM1786.94 331.226C1786.94 329.812 1785.91 329.098 1784.53 329.098L1781.53 329.098C1780.15 329.098 1779.12 329.812 1779.12 331.226C1779.12 332.64 1780.15 333.354 1781.53 333.354L1784.53 333.354C1785.91 333.354 1786.94 332.64 1786.94 331.226Z" fill="white"></path>
    <path d="M1777.89 321.602C1777.89 319.502 1779.24 318.13 1781.52 318.13L1784.54 318.13C1786.94 318.13 1788.17 319.544 1788.17 321.602C1788.17 323.66 1786.94 325.074 1784.54 325.074L1781.52 325.074C1779.24 325.074 1777.89 323.702 1777.89 321.602ZM1786.94 321.602C1786.94 320.188 1785.91 319.474 1784.53 319.474L1781.53 319.474C1780.15 319.474 1779.12 320.188 1779.12 321.602C1779.12 323.016 1780.15 323.73 1781.53 323.73L1784.53 323.73C1785.91 323.73 1786.94 323.016 1786.94 321.602Z" fill="white"></path>
    <path d="M1777.89 311.979C1777.89 309.879 1779.24 308.507 1781.52 308.507L1784.54 308.507C1786.94 308.507 1788.17 309.921 1788.17 311.979C1788.17 314.037 1786.94 315.451 1784.54 315.451L1781.52 315.451C1779.24 315.451 1777.89 314.079 1777.89 311.979ZM1786.94 311.979C1786.94 310.565 1785.91 309.851 1784.53 309.851L1781.53 309.851C1780.15 309.851 1779.12 310.565 1779.12 311.979C1779.12 313.393 1780.15 314.107 1781.53 314.107L1784.53 314.107C1785.91 314.107 1786.94 313.393 1786.94 311.979Z" fill="white"></path>
    <path d="M1777.89 302.356C1777.89 300.256 1779.24 298.884 1781.52 298.884L1784.54 298.884C1786.94 298.884 1788.17 300.298 1788.17 302.356C1788.17 304.414 1786.94 305.828 1784.54 305.828L1781.52 305.828C1779.24 305.828 1777.89 304.456 1777.89 302.356ZM1786.94 302.356C1786.94 300.942 1785.91 300.228 1784.53 300.228L1781.53 300.228C1780.15 300.228 1779.12 300.942 1779.12 302.356C1779.12 303.77 1780.15 304.484 1781.53 304.484L1784.53 304.484C1785.91 304.484 1786.94 303.77 1786.94 302.356Z" fill="white"></path>
    <path d="M1777.89 292.732C1777.89 290.632 1779.24 289.26 1781.52 289.26L1784.54 289.26C1786.94 289.26 1788.17 290.674 1788.17 292.732C1788.17 294.79 1786.94 296.204 1784.54 296.204L1781.52 296.204C1779.24 296.204 1777.89 294.832 1777.89 292.732ZM1786.94 292.732C1786.94 291.318 1785.91 290.604 1784.53 290.604L1781.53 290.604C1780.15 290.604 1779.12 291.318 1779.12 292.732C1779.12 294.146 1780.15 294.86 1781.53 294.86L1784.53 294.86C1785.91 294.86 1786.94 294.146 1786.94 292.732Z" fill="white"></path>
    <rect width="104" height="297" transform="translate(1720 392)" fill="white"></rect>
    <path d="M1766.05 641.201L1757.95 643.681L1766.05 646.161L1766.05 648.033L1754.64 651.473L1754.64 649.217L1762.61 646.945L1754.59 644.561L1754.59 642.625L1762.7 640.225L1754.64 637.953L1754.64 635.921L1766.05 639.217L1766.05 641.201Z" fill="black"></path>
    <path d="M1761.54 632.143L1766 632.143L1766 634.175L1754.22 634.175L1754.22 632.143L1759.1 632.143C1758.53 631.839 1757.73 631.071 1757.73 629.775C1757.73 627.919 1759.06 626.719 1761.15 626.719L1766 626.719L1766 628.767L1761.54 628.767C1760.26 628.767 1759.55 629.407 1759.55 630.431C1759.55 631.519 1760.26 632.143 1761.54 632.143Z" fill="black"></path>
    <path d="M1756.61 624.303L1754.18 624.303L1754.18 622.175L1756.61 622.175L1756.61 624.303ZM1766 624.271L1757.9 624.271L1757.9 622.223L1766 622.223L1766 624.271Z" fill="black"></path>
    <path d="M1764.18 613.822L1766 613.822L1766 615.838C1766 617.694 1765.12 618.558 1763.41 618.558L1759.65 618.558L1759.65 620.558L1757.9 620.558L1757.9 618.558L1754.64 618.558L1754.64 616.51L1757.9 616.51L1757.9 613.822L1759.65 613.822L1759.65 616.51L1762.8 616.51C1763.74 616.51 1764.18 616.206 1764.18 615.134L1764.18 613.822Z" fill="black"></path>
    <path d="M1757.7 608.477C1757.7 606.157 1759.38 604.653 1761.94 604.653L1762.27 604.653L1762.27 610.301C1763.55 610.237 1764.5 609.533 1764.5 608.317C1764.5 607.213 1763.89 606.813 1763.71 606.685L1763.71 604.701C1764.54 604.829 1766.21 605.709 1766.21 608.317C1766.21 610.797 1764.4 612.333 1761.95 612.333C1759.44 612.333 1757.7 610.829 1757.7 608.477ZM1759.26 608.477C1759.26 609.501 1759.9 610.093 1760.93 610.269L1760.93 606.717C1759.86 606.909 1759.26 607.517 1759.26 608.477Z" fill="black"></path>
    <path d="M1788 647.156L1785.33 646.372L1785.33 648.654L1788 649.452L1788 650.558L1785.33 649.774L1785.33 651.58L1784.33 651.58L1784.33 649.48L1781.59 648.668L1781.59 650.488L1780.59 650.488L1780.59 648.374L1778.06 647.618L1778.06 646.498L1780.59 647.254L1780.59 644.972L1778.06 644.216L1778.06 643.096L1780.59 643.852L1780.59 642.046L1781.59 642.046L1781.59 644.146L1784.33 644.958L1784.33 643.138L1785.33 643.138L1785.33 645.252L1788 646.05L1788 647.156ZM1784.33 648.36L1784.33 646.078L1781.59 645.266L1781.59 647.548L1784.33 648.36Z" fill="black"></path>
    <path d="M1788 640.153L1778.06 640.153L1778.06 632.607L1779.33 632.607L1779.33 638.795L1782.09 638.795L1782.09 635.225L1783.37 635.225L1783.37 638.795L1788 638.795L1788 640.153Z" fill="black"></path>
    <path d="M1788 630.612L1778.06 630.612L1778.06 623.066L1779.33 623.066L1779.33 629.254L1782.09 629.254L1782.09 625.684L1783.37 625.684L1783.37 629.254L1788 629.254L1788 630.612Z" fill="black"></path>
    <path d="M1788 621.07L1778.06 621.07L1778.06 613.524L1779.33 613.524L1779.33 619.712L1782.09 619.712L1782.09 616.142L1783.37 616.142L1783.37 619.712L1788 619.712L1788 621.07Z" fill="black"></path>
    <path d="M1788 611.529L1778.06 611.529L1778.06 603.983L1779.33 603.983L1779.33 610.171L1782.09 610.171L1782.09 606.601L1783.37 606.601L1783.37 610.171L1788 610.171L1788 611.529Z" fill="black"></path>
    <path d="M1788 601.988L1778.06 601.988L1778.06 594.442L1779.33 594.442L1779.33 600.63L1782.09 600.63L1782.09 597.06L1783.37 597.06L1783.37 600.63L1788 600.63L1788 601.988Z" fill="black"></path>
    <path d="M1788 592.446L1778.06 592.446L1778.06 584.9L1779.33 584.9L1779.33 591.088L1782.09 591.088L1782.09 587.518L1783.37 587.518L1783.37 591.088L1788 591.088L1788 592.446Z" fill="black"></path>
    <rect width="104" height="149" transform="translate(1720 688)" fill="#61AAF2"></rect>
    <path d="M1766 798.432L1754.64 798.432L1754.64 789.456L1756.51 789.456L1756.51 796.288L1759.17 796.288L1759.17 792.384L1761.04 792.384L1761.04 796.288L1766 796.288L1766 798.432Z" fill="black"></path>
    <path d="M1757.7 784.889C1757.7 782.521 1759.44 780.905 1761.95 780.905C1764.43 780.905 1766.21 782.521 1766.21 784.889C1766.21 787.241 1764.43 788.857 1761.95 788.857C1759.44 788.857 1757.7 787.241 1757.7 784.889ZM1764.42 784.889C1764.42 783.641 1763.34 782.985 1761.95 782.985C1760.56 782.985 1759.49 783.641 1759.49 784.889C1759.49 786.137 1760.56 786.793 1761.95 786.793C1763.31 786.793 1764.42 786.137 1764.42 784.889Z" fill="black"></path>
    <path d="M1760.5 771.999L1760.5 773.967C1760.22 774.095 1759.49 774.463 1759.49 775.519C1759.49 776.607 1760.54 777.279 1761.95 777.279C1763.36 777.279 1764.42 776.591 1764.42 775.503C1764.42 774.415 1763.66 774.079 1763.41 773.951L1763.41 771.999C1764.26 772.079 1766.21 772.927 1766.21 775.551C1766.21 777.727 1764.46 779.359 1761.95 779.359C1759.44 779.359 1757.7 777.743 1757.7 775.567C1757.7 772.975 1759.6 772.079 1760.5 771.999Z" fill="black"></path>
    <path d="M1766.18 766.484C1766.18 768.948 1764.75 770.18 1762.66 770.18L1757.9 770.18L1757.9 768.132L1762.54 768.132C1763.57 768.132 1764.27 767.588 1764.27 766.5C1764.27 765.428 1763.57 764.852 1762.54 764.852L1757.9 764.852L1757.9 762.836L1762.66 762.836C1764.64 762.836 1766.18 764.084 1766.18 766.484Z" fill="black"></path>
    <path d="M1762.83 756.815L1762.72 757.855C1762.54 759.567 1761.78 760.815 1760.19 760.815C1758.64 760.815 1757.68 759.471 1757.68 757.471C1757.68 754.703 1759.18 753.951 1759.94 753.791L1759.94 755.807C1759.78 755.887 1759.23 756.399 1759.23 757.455C1759.23 758.351 1759.58 758.799 1760.08 758.799C1760.58 758.799 1760.85 758.415 1760.93 757.647L1761.02 756.687C1761.23 754.559 1762.05 753.631 1763.65 753.631C1765.18 753.631 1766.22 754.799 1766.22 757.087C1766.22 759.951 1764.58 760.879 1763.78 761.007L1763.78 758.927C1763.98 758.847 1764.64 758.367 1764.64 757.087C1764.64 756.127 1764.29 755.663 1763.76 755.663C1763.2 755.663 1762.94 755.935 1762.83 756.815Z" fill="black"></path>
    <path d="M1788 795.156L1785.33 794.372L1785.33 796.654L1788 797.452L1788 798.558L1785.33 797.774L1785.33 799.58L1784.33 799.58L1784.33 797.48L1781.59 796.668L1781.59 798.488L1780.59 798.488L1780.59 796.374L1778.06 795.618L1778.06 794.498L1780.59 795.254L1780.59 792.972L1778.06 792.216L1778.06 791.096L1780.59 791.852L1780.59 790.046L1781.59 790.046L1781.59 792.146L1784.33 792.958L1784.33 791.138L1785.33 791.138L1785.33 793.252L1788 794.05L1788 795.156ZM1784.33 796.36L1784.33 794.078L1781.59 793.266L1781.59 795.548L1784.33 796.36Z" fill="black"></path>
    <path d="M1784.78 781.613C1786.68 781.613 1788.17 782.957 1788.17 785.197C1788.17 787.465 1786.74 788.753 1784.78 788.753C1783.27 788.753 1782.23 788.025 1781.1 787.143L1778.06 784.819L1778.06 783.209L1781.74 786.107C1781.56 785.771 1781.45 785.337 1781.45 784.791C1781.45 782.943 1782.72 781.613 1784.78 781.613ZM1784.78 782.971C1783.55 782.971 1782.6 783.741 1782.6 785.197C1782.6 786.541 1783.55 787.395 1784.78 787.395C1785.97 787.395 1786.94 786.597 1786.94 785.197C1786.94 783.741 1785.97 782.971 1784.78 782.971Z" fill="black"></path>
    <path d="M1778.02 776.642L1788 776.642L1788 778L1779.6 778L1781.03 780.464L1779.74 780.464L1778.02 777.65L1778.02 776.642Z" fill="black"></path>
    <path d="M1788 766.473L1785.61 767.453L1785.61 772.213L1788 773.193L1788 774.537L1778 770.393L1778 769.189L1788 765.045L1788 766.473ZM1784.37 771.695L1784.37 767.971L1779.84 769.833L1784.37 771.695Z" fill="black"></path>
    <path d="M1788 756.125L1785.61 757.105L1785.61 761.865L1788 762.845L1788 764.189L1778 760.045L1778 758.841L1788 754.697L1788 756.125ZM1784.37 761.347L1784.37 757.623L1779.84 759.485L1784.37 761.347Z" fill="black"></path>
    <path d="M1788 752.763L1778.06 752.763L1778.06 745.217L1779.33 745.217L1779.33 751.405L1782.09 751.405L1782.09 747.835L1783.37 747.835L1783.37 751.405L1788 751.405L1788 752.763Z" fill="black"></path>
    <path d="M1786.77 736.726L1788 736.726L1788 743.712L1787.16 743.712L1783.84 740.352C1782.76 739.274 1782.04 738.658 1780.96 738.658C1779.85 738.658 1779.12 739.344 1779.12 740.506C1779.12 741.668 1779.94 742.354 1781.07 742.354L1781.71 742.354L1781.71 743.684L1781.06 743.684C1779.22 743.684 1777.89 742.48 1777.89 740.506C1777.89 738.532 1779.21 737.3 1780.96 737.3C1782.53 737.3 1783.52 738.252 1784.71 739.47L1786.77 741.57L1786.77 736.726Z" fill="black"></path>
    <rect width="104" height="148" transform="translate(1720 836)" fill="#CC5247"></rect>
    <path d="M1766 946.432L1754.64 946.432L1754.64 937.936L1756.5 937.936L1756.5 944.288L1759.09 944.288L1759.09 940.544L1760.96 940.544L1760.96 944.288L1764.1 944.288L1764.1 937.36L1766 937.36L1766 946.432Z" fill="black"></path>
    <path d="M1761.73 933.486L1766 933.486L1766 935.518L1757.9 935.518L1757.9 933.486L1759.22 933.486C1758.7 933.278 1757.86 932.622 1757.86 930.958L1757.86 929.486L1759.89 929.486L1759.89 931.262C1759.89 932.862 1760.46 933.486 1761.73 933.486Z" fill="black"></path>
    <path d="M1761.73 925.722L1766 925.722L1766 927.754L1757.9 927.754L1757.9 925.722L1759.22 925.722C1758.7 925.514 1757.86 924.858 1757.86 923.194L1757.86 921.722L1759.89 921.722L1759.89 923.498C1759.89 925.098 1760.46 925.722 1761.73 925.722Z" fill="black"></path>
    <path d="M1757.7 916.581C1757.7 914.213 1759.44 912.597 1761.95 912.597C1764.43 912.597 1766.21 914.213 1766.21 916.581C1766.21 918.933 1764.43 920.549 1761.95 920.549C1759.44 920.549 1757.7 918.933 1757.7 916.581ZM1764.42 916.581C1764.42 915.333 1763.34 914.677 1761.95 914.677C1760.56 914.677 1759.49 915.333 1759.49 916.581C1759.49 917.829 1760.56 918.485 1761.95 918.485C1763.31 918.485 1764.42 917.829 1764.42 916.581Z" fill="black"></path>
    <path d="M1761.73 908.539L1766 908.539L1766 910.571L1757.9 910.571L1757.9 908.539L1759.22 908.539C1758.7 908.331 1757.86 907.675 1757.86 906.011L1757.86 904.539L1759.89 904.539L1759.89 906.315C1759.89 907.915 1760.46 908.539 1761.73 908.539Z" fill="black"></path>
    <path d="M1788 943.156L1785.33 942.372L1785.33 944.654L1788 945.452L1788 946.558L1785.33 945.774L1785.33 947.58L1784.33 947.58L1784.33 945.48L1781.59 944.668L1781.59 946.488L1780.59 946.488L1780.59 944.374L1778.06 943.618L1778.06 942.498L1780.59 943.254L1780.59 940.972L1778.06 940.216L1778.06 939.096L1780.59 939.852L1780.59 938.046L1781.59 938.046L1781.59 940.146L1784.33 940.958L1784.33 939.138L1785.33 939.138L1785.33 941.252L1788 942.05L1788 943.156ZM1784.33 944.36L1784.33 942.078L1781.59 941.266L1781.59 943.548L1784.33 944.36Z" fill="black"></path>
    <path d="M1788 936.153L1778.06 936.153L1778.06 931.309C1778.06 929.405 1779.07 928.397 1780.73 928.397C1781.8 928.397 1782.57 929.181 1782.79 929.965C1783.04 929.013 1783.87 928.173 1785.14 928.173C1786.89 928.173 1788 929.321 1788 931.631L1788 936.153ZM1779.31 931.379L1779.31 934.809L1782.25 934.809L1782.25 931.365C1782.25 930.371 1781.73 929.797 1780.78 929.797C1779.77 929.797 1779.31 930.371 1779.31 931.379ZM1783.49 931.673L1783.49 934.809L1786.75 934.809L1786.75 931.673C1786.75 930.217 1786.14 929.559 1785.12 929.559C1784.07 929.559 1783.49 930.217 1783.49 931.673Z" fill="black"></path>
    <path d="M1788 925.696L1778.06 925.696L1778.06 918.15L1779.33 918.15L1779.33 924.338L1782.09 924.338L1782.09 920.768L1783.37 920.768L1783.37 924.338L1788 924.338L1788 925.696Z" fill="black"></path>
    <path d="M1784.93 908.594L1784.93 910.708L1788 910.708L1788 912.024L1784.93 912.024L1784.93 917.064L1784.19 917.064L1778.06 912.192L1778.06 910.708L1783.76 910.708L1783.76 908.594L1784.93 908.594ZM1783.76 915.272L1783.76 912.024L1779.63 912.024L1783.76 915.272Z" fill="black"></path>
    <path d="M1788 906.586L1778.06 906.586L1778.06 903.268C1778.06 900.174 1780.01 898.2 1783.03 898.2C1786 898.2 1788 900.132 1788 903.268L1788 906.586ZM1779.31 903.268L1779.31 905.228L1786.75 905.228L1786.75 903.268C1786.75 900.986 1785.3 899.6 1783.03 899.6C1780.68 899.6 1779.31 900.986 1779.31 903.268Z" fill="black"></path>
    <path d="M1784.93 888.186L1784.93 890.3L1788 890.3L1788 891.616L1784.93 891.616L1784.93 896.656L1784.19 896.656L1778.06 891.784L1778.06 890.3L1783.76 890.3L1783.76 888.186L1784.93 888.186ZM1783.76 894.864L1783.76 891.616L1779.63 891.616L1783.76 894.864Z" fill="black"></path>
    <path d="M1785.28 879.737C1787.01 879.737 1788.17 881.039 1788.17 883.279C1788.17 885.631 1786.73 886.695 1785.37 886.807L1785.37 885.449C1786.14 885.309 1786.94 884.637 1786.94 883.279C1786.94 881.949 1786.31 881.109 1785.2 881.109C1784.08 881.109 1783.48 881.851 1783.48 883.139L1783.48 884.889L1782.25 884.889L1782.25 883.097C1782.25 882.033 1781.69 881.403 1780.68 881.403C1779.68 881.403 1779.11 882.187 1779.11 883.307C1779.11 884.483 1779.77 885.043 1780.61 885.197L1780.61 886.541C1779.33 886.471 1777.89 885.491 1777.89 883.321C1777.89 881.235 1779.04 880.059 1780.62 880.059C1781.85 880.059 1782.51 880.843 1782.78 881.445C1783 880.703 1783.7 879.737 1785.28 879.737Z" fill="black"></path>
  </g>
  <defs>
    <clipPath id="clip0_2528_8509">
      <rect x="96" y="96" width="374" height="888" rx="36" fill="white"></rect>
    </clipPath>
    <clipPath id="clip1_2528_8509">
      <rect x="502" y="96" width="374" height="888" rx="36" fill="white"></rect>
    </clipPath>
    <clipPath id="clip2_2528_8509">
      <rect x="908" y="96" width="374" height="888" rx="36" fill="white"></rect>
    </clipPath>
    <clipPath id="clip3_2528_8509">
      <rect x="1314" y="96" width="374" height="888" rx="36" fill="white"></rect>
    </clipPath>
    <clipPath id="clip4_2528_8509">
      <rect x="1720" y="96" width="104" height="888" rx="36" fill="white"></rect>
    </clipPath>
  </defs>
</svg>
